<svg xmlns="http://www.w3.org/2000/svg" viewBox="0 0 147.33 145.85"><defs><style>.cls-1{fill:#fff;}</style></defs><title>Ресурс 1</title><g id="Слой_2" data-name="Слой 2"><g id="Calque_1" data-name="Calque 1"><path class="cls-1" d="M135.46,39.19H104.32A38.53,38.53,0,0,0,113.56,36,19.28,19.28,0,1,0,94.46,2.54c-5.22,3-12,14.51-16.95,23.88a10.49,10.49,0,0,0-7.69,0C64.92,17.05,58.09,5.51,52.88,2.54A19.28,19.28,0,0,0,33.77,36,38.53,38.53,0,0,0,43,39.19H11.88A11.89,11.89,0,0,0,0,51.07V68.22a4.93,4.93,0,0,0,4.93,4.93H7V134a11.89,11.89,0,0,0,11.88,11.88H128.5A11.89,11.89,0,0,0,140.38,134V73.15h2a4.93,4.93,0,0,0,4.92-4.93V51.07A11.89,11.89,0,0,0,135.46,39.19Zm2,11.88V63.3H84.34V49h51.12A2,2,0,0,1,137.48,51.07ZM98.83,10.2a10.46,10.46,0,1,1,10.36,18.17c-3.53,2-15.18,4.07-25.16,5.41,0-.16-.07-.32-.12-.48C89.5,22.37,95.88,11.88,98.83,10.2ZM33.23,22A10.45,10.45,0,0,1,48.5,10.2c3,1.68,9.34,12.17,14.93,23.1,0,.16-.09.32-.13.48-10-1.34-21.63-3.4-25.16-5.41A10.38,10.38,0,0,1,33.23,22Zm-23.38,29a2,2,0,0,1,2-2H63V63.3H9.85Zm7,82.9V73.15H63V136H18.83A2,2,0,0,1,16.8,134Zm113.73,0a2,2,0,0,1-2,2H84.34V73.15h46.19Z"/></g></g></svg>