<svg xmlns="http://www.w3.org/2000/svg" viewBox="0 0 45.05 33.87"><defs><style>.cls-1{fill:#fff;}</style></defs><title>burn</title><g id="Слой_2" data-name="Слой 2"><g id="Layer_1" data-name="Layer 1"><g id="_Группа_" data-name="&lt;Группа&gt;"><path class="cls-1" d="M10.3,33.87a11.19,11.19,0,0,1-2.94-.38,9.13,9.13,0,0,1-3-1.32,9.15,9.15,0,0,1-2.41-2.49,11.71,11.71,0,0,1-1.94-5,.43.43,0,0,1,.74-.35A6.7,6.7,0,0,0,2.9,25.91a7.21,7.21,0,0,0,2.27.53,5.18,5.18,0,0,1,2.34.65,5.47,5.47,0,0,1,2.21,2.82.45.45,0,0,1-.13.49c-.07.05-1.61,1.26-4.45-.75a.43.43,0,1,1,.5-.7c1.63,1.16,2.67,1.06,3.13.91a4.38,4.38,0,0,0-1.7-2,4.38,4.38,0,0,0-2-.53,8,8,0,0,1-2.52-.6,7.41,7.41,0,0,1-1.46-.85,10.55,10.55,0,0,0,1.54,3.35,8.27,8.27,0,0,0,2.2,2.28,8.58,8.58,0,0,0,2.74,1.2,10.94,10.94,0,0,0,4.84.15.43.43,0,0,1,.15.84A12.53,12.53,0,0,1,10.3,33.87Z"/></g><g id="_Группа_2" data-name="&lt;Группа&gt;"><path class="cls-1" d="M26.69,27.1A4.68,4.68,0,0,1,22,22.43c0-2.19,3.32-7,4.33-8.46a.45.45,0,0,1,.36-.18A.41.41,0,0,1,27,14l1.72,2.56h0c.33.51.42.66.65,1.08l.2.34c1.18,2.06,1.76,3.52,1.76,4.47A4.68,4.68,0,0,1,26.69,27.1Zm0-12.12c-1.83,2.64-3.81,6-3.81,7.45a3.82,3.82,0,0,0,7.64,0c0-.54-.28-1.68-1.64-4l-.2-.35c-.23-.41-.31-.55-.62-1Z"/></g><g id="_Группа_3" data-name="&lt;Группа&gt;"><path class="cls-1" d="M20.66,32.84a8.32,8.32,0,0,1-6-2.09,20.25,20.25,0,0,1-3.6-4.22v0h0l-.24-.39a16.8,16.8,0,0,1-2.21-5.83,25.64,25.64,0,0,1-.25-2.73,16.7,16.7,0,0,0-.46-3.63A15.37,15.37,0,0,0,2.56,6.33a11.76,11.76,0,0,1,.68,6.18c-.05.32-.12.64-.18,1a8.39,8.39,0,0,0-.27,2.4,4,4,0,0,0,2.55,3.32S5.58,19,5.8,18a6,6,0,0,0-.92-3.81A.42.42,0,0,1,5,13.63a.41.41,0,0,1,.58.16,6.66,6.66,0,0,1,1,4.42c-.13.52-.41,1.72-1.2,1.82a.88.88,0,0,1-.34,0,4.82,4.82,0,0,1-3.16-4.06,9.33,9.33,0,0,1,.28-2.65c.07-.31.13-.61.18-.92A11,11,0,0,0,1,5.11a.43.43,0,0,1,.08-.53.42.42,0,0,1,.54,0C5.4,7.23,7.8,10.31,8.74,13.69a16.73,16.73,0,0,1,.49,3.81,26.15,26.15,0,0,0,.24,2.64,16.24,16.24,0,0,0,2.1,5.53c.07.13.15.25.23.37v0h0a18.77,18.77,0,0,0,3.44,4A7.55,7.55,0,0,0,21,32H21c1.93,0,3.92-.08,5.88-.08h8a5.67,5.67,0,0,0,2.58-.62,11.19,11.19,0,0,0,4-4.34,20.07,20.07,0,0,0,2.21-5.75,20.44,20.44,0,0,0,0-8.6,2.32,2.32,0,0,0-2.27-1.87H12.36a2.35,2.35,0,0,0-1.47.52,2.27,2.27,0,0,0-.79,1.33.44.44,0,0,1-.5.35.43.43,0,0,1-.35-.49,3.15,3.15,0,0,1,3.11-2.56h29.1a3.11,3.11,0,0,1,2,.72,3,3,0,0,1,1.09,1.84,21.22,21.22,0,0,1,0,8.94,20.58,20.58,0,0,1-2.3,6A11.79,11.79,0,0,1,40.45,30,11.92,11.92,0,0,1,38,32l0,0a6.58,6.58,0,0,1-3,.72h-8c-2,0-3.94,0-5.86.07h-.39Z"/></g><g id="_Группа_4" data-name="&lt;Группа&gt;"><path class="cls-1" d="M38.71,8.26a.43.43,0,0,1-.43-.42V4.72A3.87,3.87,0,0,0,34.42.85H19.34a3.88,3.88,0,0,0-3.87,3.87V7.84a.43.43,0,0,1-.85,0V4.72A4.72,4.72,0,0,1,19.34,0H34.42a4.73,4.73,0,0,1,4.72,4.72V7.84A.42.42,0,0,1,38.71,8.26Z"/></g><g id="_Группа_5" data-name="&lt;Группа&gt;"><path class="cls-1" d="M35.91,8.26a.42.42,0,0,1-.43-.42V5.21A1.48,1.48,0,0,0,34,3.73H19.76a.43.43,0,0,1,0-.85H34a2.33,2.33,0,0,1,2.34,2.33V7.84A.43.43,0,0,1,35.91,8.26Z"/></g></g></g></svg>