<svg xmlns="http://www.w3.org/2000/svg" viewBox="0 0 45.05 56.2"><defs><style>.cls-1{fill:#fff;}</style></defs><title>care</title><g id="Слой_2" data-name="Слой 2"><g id="Layer_1" data-name="Layer 1"><g id="_Группа_" data-name="&lt;Группа&gt;"><path class="cls-1" d="M22.89,46.47a10.26,10.26,0,0,1-4.29-.95.57.57,0,0,1-.31-.38.55.55,0,0,1,.09-.48l.71-.94a2.79,2.79,0,0,1,1.4-1,2.17,2.17,0,0,1,.56-.1,2.89,2.89,0,0,1,1.28.17,1.87,1.87,0,0,0,.59.11,1.57,1.57,0,0,0,.58-.1,2.89,2.89,0,0,1,1.27-.15,2.64,2.64,0,0,1,.71.17,2.8,2.8,0,0,1,1.19.91l.72.93a.61.61,0,0,1,.1.49.56.56,0,0,1-.32.38,10,10,0,0,1-4.24.95Zm-3.14-1.72a8.94,8.94,0,0,0,3.14.57h0A8.84,8.84,0,0,0,26,44.76l-.26-.34a1.62,1.62,0,0,0-.69-.54,1.24,1.24,0,0,0-.4-.09,1.69,1.69,0,0,0-.82.1,3,3,0,0,1-.94.16,2.87,2.87,0,0,1-.92-.18,1.89,1.89,0,0,0-.84-.12l-.32.06a1.62,1.62,0,0,0-.81.6Z"/></g><g id="_Группа_2" data-name="&lt;Группа&gt;"><path class="cls-1" d="M23.68,49.15H21.87a3.47,3.47,0,0,1-1.3-.37l-.09-.06-1-.78a.58.58,0,0,1-.1-.81.58.58,0,0,1,.81-.1l1,.75A2.37,2.37,0,0,0,22,48h1.71A2,2,0,0,0,24,48a2.2,2.2,0,0,0,.79-.28l.84-.66a.58.58,0,0,1,.81.08.57.57,0,0,1-.09.81l-.87.7-.07.05a3.55,3.55,0,0,1-1.23.44A3.08,3.08,0,0,1,23.68,49.15Z"/></g><g id="_Группа_3" data-name="&lt;Группа&gt;"><path class="cls-1" d="M22.74,39.85a3.15,3.15,0,0,1-1.78-.5L20.49,39c-.43-.29-.7-.46-.79-.88a.57.57,0,0,1,.42-.69.58.58,0,0,1,.69.39,3.54,3.54,0,0,0,.32.23l.49.32a2.25,2.25,0,0,0,2.23,0l.49-.33a3.54,3.54,0,0,0,.32-.23.6.6,0,0,1,.69-.39.57.57,0,0,1,.42.69c-.09.42-.36.59-.79.88l-.47.32A3.14,3.14,0,0,1,22.74,39.85Z"/></g><g id="_Группа_4" data-name="&lt;Группа&gt;"><path class="cls-1" d="M15,31.67a5.1,5.1,0,0,1-1.15-.12,5.31,5.31,0,0,1-2.26-1.16,1.39,1.39,0,0,0-1.69,0,.58.58,0,0,1-.81-.11.56.56,0,0,1,.11-.8,2.54,2.54,0,0,1,3.12,0,4.09,4.09,0,0,0,1.79.92,4.25,4.25,0,0,0,1.4.08,11.31,11.31,0,0,0,2-.49l1.2-.34a.58.58,0,0,1,.32,1.11l-1.21.34a11.86,11.86,0,0,1-2.19.52A4.88,4.88,0,0,1,15,31.67Z"/></g><g id="_Группа_5" data-name="&lt;Группа&gt;"><path class="cls-1" d="M12.12,32.44a.76.76,0,0,1-.21,0,.58.58,0,0,1-.32-.75,2.33,2.33,0,0,1,1.92-1.36.57.57,0,0,1,.66.47.59.59,0,0,1-.47.67c-.26,0-.86.18-1,.64A.57.57,0,0,1,12.12,32.44Z"/></g><g id="_Группа_6" data-name="&lt;Группа&gt;"><path class="cls-1" d="M30.32,31.67a4.88,4.88,0,0,1-.62,0,11.86,11.86,0,0,1-2.19-.52l-1.21-.34a.58.58,0,0,1-.39-.71.57.57,0,0,1,.71-.4l1.2.34a11.31,11.31,0,0,0,2,.49,4.25,4.25,0,0,0,1.4-.08,4.09,4.09,0,0,0,1.77-.9A2.58,2.58,0,0,1,34.57,29h0a2.54,2.54,0,0,1,1.5.53.56.56,0,0,1,.11.8.58.58,0,0,1-.81.11,1.38,1.38,0,0,0-.82-.29,1.35,1.35,0,0,0-.89.3,5.31,5.31,0,0,1-2.24,1.14A5.1,5.1,0,0,1,30.32,31.67Z"/></g><g id="_Группа_7" data-name="&lt;Группа&gt;"><path class="cls-1" d="M33.24,32.44a.57.57,0,0,1-.54-.36c-.18-.46-.78-.6-1-.64a.59.59,0,0,1-.47-.67.57.57,0,0,1,.66-.47,2.33,2.33,0,0,1,1.92,1.36.58.58,0,0,1-.32.75A.76.76,0,0,1,33.24,32.44Z"/></g><g id="_Группа_8" data-name="&lt;Группа&gt;"><path class="cls-1" d="M22.74,56.2A6.57,6.57,0,0,1,19,55C15,52.15,8,46.54,6.47,40.78A47.17,47.17,0,0,1,4.84,28.1a.58.58,0,0,1,.58-.57h0a.57.57,0,0,1,.56.59A46.41,46.41,0,0,0,7.58,40.49C9,45.9,15.74,51.3,19.63,54a5.31,5.31,0,0,0,6.24,0A45.92,45.92,0,0,0,35,45.8a.58.58,0,1,1,.9.72A46.78,46.78,0,0,1,26.53,55,6.58,6.58,0,0,1,22.74,56.2Z"/></g><g id="_Группа_9" data-name="&lt;Группа&gt;"><path class="cls-1" d="M39.54,35.85h-.08a.58.58,0,0,1-.5-.65,41.29,41.29,0,0,0,.34-6.71.57.57,0,0,1,.56-.59.56.56,0,0,1,.59.55,43.58,43.58,0,0,1-.34,6.9A.58.58,0,0,1,39.54,35.85Z"/></g><g id="_Группа_10" data-name="&lt;Группа&gt;"><path class="cls-1" d="M40.57,26a.57.57,0,0,1-.56-.44,24.26,24.26,0,0,0-1.95-5.23l-.42-.77a17.16,17.16,0,0,0-15-9.07h-.22A17.32,17.32,0,0,0,7.33,20.05l-.14.25a24.24,24.24,0,0,0-1.94,5.23.59.59,0,0,1-.59.44.57.57,0,0,1-.54-.49,27.62,27.62,0,0,1,0-8.12c.34-2.31,1-7.12,4.4-11.18C13.21.5,20,0,22.66,0c5.49.07,13.16,2.79,16.73,10.22a18.37,18.37,0,0,1,1.75,7v8.19a.59.59,0,0,1-.51.58ZM22.42,1.15c-2.66,0-8.77.62-13,5.77-3.14,3.81-3.83,8.4-4.15,10.61A26.07,26.07,0,0,0,5,22.45a24.57,24.57,0,0,1,1.18-2.67l.14-.27A18.46,18.46,0,0,1,22.42,9.31h.25a18.28,18.28,0,0,1,16,9.65c.15.27.3.54.44.82.33.64.63,1.3.91,2v-4.5a17.41,17.41,0,0,0-1.64-6.53C35.22,4.21,28.21,1.23,22.64,1.15Z"/></g><g id="_Группа_11" data-name="&lt;Группа&gt;"><path class="cls-1" d="M3.06,42.51a.55.55,0,0,1-.32-.1.58.58,0,0,1-.17-.79,2.84,2.84,0,0,0,.16-2.74,6.09,6.09,0,0,0-.85-1.19c-.19-.22-.37-.44-.55-.68a7.33,7.33,0,0,1,.08-8.53A14.33,14.33,0,0,1,2.58,27.2a7.38,7.38,0,0,0,1.59-2,.57.57,0,0,1,1,.46A8.15,8.15,0,0,1,3.4,28a11.56,11.56,0,0,0-1.07,1.17,6.13,6.13,0,0,0-.07,7.15c.15.21.32.41.5.62a7.18,7.18,0,0,1,1,1.43,4,4,0,0,1-.23,3.86A.59.59,0,0,1,3.06,42.51Z"/></g><g id="_Группа_12" data-name="&lt;Группа&gt;"><path class="cls-1" d="M18.84,26a.56.56,0,0,1-.45-.23,4.58,4.58,0,0,0-2.72-1.41,16.31,16.31,0,0,0-4.61,0,.58.58,0,1,1-.18-1.14,17.16,17.16,0,0,1,5,0,5.68,5.68,0,0,1,3.42,1.86.57.57,0,0,1-.11.81A.63.63,0,0,1,18.84,26Z"/></g><g id="_Группа_13" data-name="&lt;Группа&gt;"><path class="cls-1" d="M25.39,26a.58.58,0,0,1-.46-.92,5.68,5.68,0,0,1,3.42-1.86,17.14,17.14,0,0,1,5,0,.57.57,0,0,1,.48.65.58.58,0,0,1-.66.49,16.14,16.14,0,0,0-4.61,0,4.59,4.59,0,0,0-2.71,1.42A.59.59,0,0,1,25.39,26Z"/></g><g id="_Группа_14" data-name="&lt;Группа&gt;"><path class="cls-1" d="M37.41,48.09a.57.57,0,0,1-.52-.34,6.61,6.61,0,0,1-.25-.66,16.32,16.32,0,0,1-.47-1.67,20.23,20.23,0,0,1-.35-2.05,1.7,1.7,0,0,0-1.53-1.49c-.92-.08-1.6-.17-2-.25a13.87,13.87,0,0,1-1.69-.41,5.24,5.24,0,0,1-.67-.23.58.58,0,0,1-.36-.52.56.56,0,0,1,.34-.53,5.92,5.92,0,0,1,.67-.26,13.42,13.42,0,0,1,1.68-.46,19.15,19.15,0,0,1,2-.35,1.69,1.69,0,0,0,1.49-1.54,20.17,20.17,0,0,1,.29-2,14.91,14.91,0,0,1,.41-1.69,5.24,5.24,0,0,1,.23-.67.56.56,0,0,1,.52-.35h0a.58.58,0,0,1,.53.34s.11.25.25.66.28.87.46,1.68c.14.61.25,1.3.35,2a1.7,1.7,0,0,0,1.53,1.49c.93.08,1.61.17,2,.25a14.74,14.74,0,0,1,1.68.41,6,6,0,0,1,.68.24.57.57,0,0,1,.35.52.58.58,0,0,1-.35.53A6.61,6.61,0,0,1,44,41a16,16,0,0,1-1.67.46,19.28,19.28,0,0,1-2,.34,1.72,1.72,0,0,0-1.5,1.54c-.07.74-.16,1.41-.28,2-.16.82-.33,1.41-.41,1.69s-.23.65-.23.66a.57.57,0,0,1-.53.36Zm-5.29-7.66.37.07c.38.07,1,.15,1.91.23A2.89,2.89,0,0,1,37,43.23a17.63,17.63,0,0,0,.32,1.93l.09.38c0-.12,0-.25.08-.38.11-.57.2-1.21.27-1.91a2.85,2.85,0,0,1,2.5-2.57,17,17,0,0,0,1.88-.32l.37-.09-.36-.07c-.37-.07-1-.15-1.9-.23a2.88,2.88,0,0,1-2.58-2.5,18.37,18.37,0,0,0-.33-1.93c0-.13-.05-.25-.08-.36,0,.11,0,.23-.07.35a16.57,16.57,0,0,0-.27,1.91A2.84,2.84,0,0,1,34.4,40c-.69.09-1.33.2-1.9.33Z"/></g></g></g></svg>