<svg xmlns="http://www.w3.org/2000/svg" viewBox="0 0 45.05 46.82"><defs><style>.cls-1{fill:#fff;}</style></defs><title>damage</title><g id="Слой_2" data-name="Слой 2"><g id="Layer_1" data-name="Layer 1"><g id="_Группа_" data-name="&lt;Группа&gt;"><path class="cls-1" d="M39.45,38.64h-2.3a.49.49,0,0,1-.49-.49V36.4H34.91a.49.49,0,0,1-.49-.49V33.6a.49.49,0,0,1,.49-.49h1.75V31.36a.49.49,0,0,1,.49-.49h2.3a.49.49,0,0,1,.49.49v1.75h1.75a.49.49,0,0,1,.49.49v2.31a.49.49,0,0,1-.49.49H39.94v1.75A.49.49,0,0,1,39.45,38.64Zm-1.81-1H39V35.91a.49.49,0,0,1,.49-.5H41.2V34.09H39.45A.49.49,0,0,1,39,33.6V31.85H37.64V33.6a.49.49,0,0,1-.49.49H35.4v1.32h1.75a.49.49,0,0,1,.49.5Z"/></g><g id="_Группа_2" data-name="&lt;Группа&gt;"><path class="cls-1" d="M22.69,36.81a10.44,10.44,0,0,1-4.36-1,.45.45,0,0,1-.27-.33.47.47,0,0,1,.08-.41l.73-1a2.72,2.72,0,0,1,1.38-1,3,3,0,0,1,1.84.07,2.14,2.14,0,0,0,.63.13,1.74,1.74,0,0,0,.64-.12,3,3,0,0,1,1.26-.15,2.48,2.48,0,0,1,.7.17,2.82,2.82,0,0,1,1.19.9l.74,1a.52.52,0,0,1,.09.42.49.49,0,0,1-.28.33,10.54,10.54,0,0,1-4.32,1ZM19.3,35.19a9.47,9.47,0,0,0,3.39.63h0a9.22,9.22,0,0,0,3.35-.63l-.35-.46a1.85,1.85,0,0,0-.76-.59,1.94,1.94,0,0,0-1.32,0,2.85,2.85,0,0,1-.94.16,2.93,2.93,0,0,1-.92-.18,2.13,2.13,0,0,0-.9-.12,1.63,1.63,0,0,0-.35.06,1.81,1.81,0,0,0-.89.65Z"/></g><g id="_Группа_3" data-name="&lt;Группа&gt;"><path class="cls-1" d="M23.51,39.56H21.65a3.42,3.42,0,0,1-1.29-.37l-.08,0-1-.8a.49.49,0,0,1,.6-.78l1,.78a2.5,2.5,0,0,0,.9.24h1.77a2.34,2.34,0,0,0,.38,0,2.59,2.59,0,0,0,.86-.3l.86-.69a.49.49,0,0,1,.62.76l-.9.72,0,0a3.41,3.41,0,0,1-1.24.44A3.08,3.08,0,0,1,23.51,39.56Z"/></g><g id="_Группа_4" data-name="&lt;Группа&gt;"><path class="cls-1" d="M22.54,30a3.14,3.14,0,0,1-1.77-.5l-.48-.32c-.45-.3-.69-.46-.78-.85a.49.49,0,0,1,1-.23,2.64,2.64,0,0,0,.36.26l.5.33a2.41,2.41,0,0,0,2.42,0c.2-.15.36-.25.5-.34a3.29,3.29,0,0,0,.37-.27.49.49,0,0,1,.59-.36.5.5,0,0,1,.36.6c-.09.39-.34.55-.78.85l-.48.32A3.14,3.14,0,0,1,22.54,30Z"/></g><g id="_Группа_5" data-name="&lt;Группа&gt;"><path class="cls-1" d="M14.62,21.57a5.26,5.26,0,0,1-1.16-.13,5.36,5.36,0,0,1-2.29-1.16,1.53,1.53,0,0,0-1.87,0,.49.49,0,0,1-.69-.09.5.5,0,0,1,.09-.69,2.53,2.53,0,0,1,3.1,0,4.23,4.23,0,0,0,3.36,1,11.6,11.6,0,0,0,2.05-.5l1.24-.35a.49.49,0,0,1,.61.34.47.47,0,0,1-.33.6L17.48,21a12.8,12.8,0,0,1-2.24.53C15.1,21.55,14.89,21.57,14.62,21.57Z"/></g><g id="_Группа_6" data-name="&lt;Группа&gt;"><path class="cls-1" d="M11.61,22.36a.57.57,0,0,1-.18,0,.49.49,0,0,1-.27-.64,2.31,2.31,0,0,1,1.9-1.33.48.48,0,0,1,.56.4.49.49,0,0,1-.4.57,1.44,1.44,0,0,0-1.15.72A.48.48,0,0,1,11.61,22.36Z"/></g><g id="_Группа_7" data-name="&lt;Группа&gt;"><path class="cls-1" d="M30.35,21.57c-.27,0-.48,0-.63,0A12.79,12.79,0,0,1,27.49,21l-1.25-.36a.49.49,0,0,1-.34-.6.5.5,0,0,1,.61-.34l1.24.35a11.8,11.8,0,0,0,2.06.5,4.2,4.2,0,0,0,3.34-1A2.55,2.55,0,0,1,34.78,19a2.47,2.47,0,0,1,1.48.52.49.49,0,0,1,.09.69.49.49,0,0,1-.69.09,1.53,1.53,0,0,0-.9-.32,1.63,1.63,0,0,0-1,.33,5.2,5.2,0,0,1-3.42,1.28Z"/></g><g id="_Группа_8" data-name="&lt;Группа&gt;"><path class="cls-1" d="M33.35,22.36a.47.47,0,0,1-.45-.31,1.45,1.45,0,0,0-1.15-.72.49.49,0,1,1,.16-1,2.33,2.33,0,0,1,1.9,1.33.49.49,0,0,1-.28.64A.57.57,0,0,1,33.35,22.36Z"/></g><g id="_Группа_9" data-name="&lt;Группа&gt;"><path class="cls-1" d="M22.55,46.82a6.62,6.62,0,0,1-3.83-1.24,55.56,55.56,0,0,1-7.44-6.21C8.39,36.42,6.58,33.61,5.89,31a49.07,49.07,0,0,1-1.65-11,.49.49,0,0,1,.48-.51h0a.5.5,0,0,1,.49.48A48.35,48.35,0,0,0,6.84,30.77c1.49,5.6,8.43,11.18,12.44,14a5.57,5.57,0,0,0,6.54,0A56.93,56.93,0,0,0,31,40.67a.49.49,0,1,1,.66.73,60.8,60.8,0,0,1-5.3,4.18A6.67,6.67,0,0,1,22.55,46.82Z"/></g><g id="_Группа_10" data-name="&lt;Группа&gt;"><path class="cls-1" d="M40.25,23h0a.5.5,0,0,1-.45-.53c.08-.89.13-1.77.15-2.62a.5.5,0,0,1,.5-.48.49.49,0,0,1,.48.51c0,.87-.07,1.77-.15,2.67A.49.49,0,0,1,40.25,23Z"/></g><g id="_Группа_11" data-name="&lt;Группа&gt;"><path class="cls-1" d="M3,37.21a.5.5,0,0,1-.26-.08.49.49,0,0,1-.15-.68,3,3,0,0,0,.17-2.91,6.1,6.1,0,0,0-.89-1.25c-.19-.22-.38-.45-.56-.7a7.43,7.43,0,0,1,.08-8.66,15,15,0,0,1,1.2-1.31A7.43,7.43,0,0,0,4.28,19.5a.49.49,0,1,1,.9.39,8.2,8.2,0,0,1-1.85,2.42,12.63,12.63,0,0,0-1.12,1.22A6.43,6.43,0,0,0,2.14,31c.16.22.34.43.52.65a7.18,7.18,0,0,1,1,1.44A4,4,0,0,1,3.46,37,.52.52,0,0,1,3,37.21Z"/></g><g id="_Группа_12" data-name="&lt;Группа&gt;"><path class="cls-1" d="M18.53,15.72a.52.52,0,0,1-.39-.19A4.83,4.83,0,0,0,15.28,14a17.12,17.12,0,0,0-4.78,0,.49.49,0,1,1-.15-1,17.59,17.59,0,0,1,5.12,0,5.81,5.81,0,0,1,3.46,1.88.49.49,0,0,1-.1.68A.47.47,0,0,1,18.53,15.72Z"/></g><g id="_Группа_13" data-name="&lt;Группа&gt;"><path class="cls-1" d="M25.27,15.7a.45.45,0,0,1-.29-.1.48.48,0,0,1-.1-.69A5.72,5.72,0,0,1,28.34,13a17.52,17.52,0,0,1,5.11,0,.49.49,0,0,1,.41.56.5.5,0,0,1-.56.41,16.92,16.92,0,0,0-4.78,0,4.88,4.88,0,0,0-2.86,1.5A.47.47,0,0,1,25.27,15.7Z"/></g><g id="_Группа_14" data-name="&lt;Группа&gt;"><path class="cls-1" d="M4.83,20.58a.5.5,0,0,1-.37-.15.49.49,0,0,1,0-.64l.22-.63c1.46-4.06,3.1-8.66,9.51-13.87a20.07,20.07,0,0,1,5.62-3,.49.49,0,1,1,.35.92,18.83,18.83,0,0,0-5.35,2.89c-6.2,5-7.79,9.5-9.2,13.44l-.28.77h0a.48.48,0,0,1-.27.29A.57.57,0,0,1,4.83,20.58Z"/></g><g id="_Группа_15" data-name="&lt;Группа&gt;"><path class="cls-1" d="M40.4,20.31a.48.48,0,0,1-.46-.32c-2.48-6.72-6-11.43-11.07-14.83-2.11-1.41-4.4-2.66-6.63-3.87L21.56.92a.49.49,0,0,1-.19-.66A.49.49,0,0,1,22,.06l.68.37C25,1.65,27.27,2.91,29.42,4.35c5.25,3.51,8.89,8.38,11.44,15.3a.48.48,0,0,1-.29.63A.47.47,0,0,1,40.4,20.31Z"/></g><g id="_Группа_16" data-name="&lt;Группа&gt;"><path class="cls-1" d="M38.18,42.35a6.88,6.88,0,0,1-6.87-6.87c0-3.24,4.95-10.45,6.47-12.59a.5.5,0,0,1,.41-.2.49.49,0,0,1,.4.21l2.57,3.84h0c.49.76.62,1,1,1.61l.29.51c1.74,3,2.62,5.25,2.62,6.62A6.88,6.88,0,0,1,38.18,42.35Zm0-18.31c-2.91,4.18-5.87,9.21-5.87,11.44a5.88,5.88,0,1,0,11.76,0c0-.82-.43-2.56-2.48-6.13l-.29-.51c-.36-.62-.48-.83-.95-1.56Z"/></g></g></g></svg>