<svg xmlns="http://www.w3.org/2000/svg" width="54.27" height="47.7" viewBox="0 0 54.27 47.7"><defs><style>.cls-1{fill:none;stroke:#fff;stroke-linecap:round;stroke-linejoin:round;}</style></defs><title>family</title><g id="Слой_2" data-name="Слой 2"><g id="Layer_1" data-name="Layer 1"><path class="cls-1" d="M22.22,37.08c2.4,3,7.82,2.84,10.64,0"/><path class="cls-1" d="M32,14.74c1-.82,1.18-2.75.92-4.81a22.15,22.15,0,0,0-.73-3.46"/><path class="cls-1" d="M25.77,15.14c1.19-.38,2-2.13,2.38-4.16a21.33,21.33,0,0,0,.36-5.42"/><path class="cls-1" d="M19.28,14.2c1.23.1,2.51-1.24,3.53-3A18.24,18.24,0,0,0,25,5.56"/><path class="cls-1" d="M42.16,40.29a23.59,23.59,0,0,0,4.1-8.1,4.17,4.17,0,0,0,1.06.14,4.54,4.54,0,0,0,3.63-2,7.75,7.75,0,0,0,0-8.8,4.56,4.56,0,0,0-3.63-2,3.94,3.94,0,0,0-1.36.24A21.89,21.89,0,0,0,39.57,9.54a17.77,17.77,0,0,0-24.07,0A22,22,0,0,0,9.12,19.82a4.17,4.17,0,0,0-1.4-.25,4.54,4.54,0,0,0-3.62,2,7.7,7.7,0,0,0,0,8.8,4.52,4.52,0,0,0,3.62,2,4,4,0,0,0,1.1-.15,22.92,22.92,0,0,0,2.93,7C18.29,49.4,34.93,50,42.16,40.29Z"/><path class="cls-1" d="M19.2,29.19a2,2,0,0,1,2.16-1.87,2.09,2.09,0,0,1,2.14,1.6"/><path class="cls-1" d="M35.84,29.19a2,2,0,0,0-2.16-1.87,2.09,2.09,0,0,0-2.14,1.6"/><path class="cls-1" d="M8.47,28.91c-3-.68-3-5.29.14-5.37"/><path class="cls-1" d="M46.57,28.91c3-.68,3-5.29-.13-5.37"/><path class="cls-1" d="M34,6.08c2.33-2.8,4.9-6.33,8.16-5.44,1.38,2.19,3.11,5.29,2.65,8"/><path class="cls-1" d="M46.19,10.15c3.92.51,5.73,1.77,7.58,4.62-1.82,2.9-3.85,4-7.81,5"/><path class="cls-1" d="M43.72,8.81a2.12,2.12,0,1,1-2.12,2.12,2.12,2.12,0,0,1,2.12-2.12Z"/><path class="cls-1" d="M20.28,6.08C17.94,3.28,15.37-.25,12.11.64c-1.38,2.19-3.1,5.29-2.64,8"/><path class="cls-1" d="M8.08,10.15c-3.92.51-5.73,1.77-7.58,4.62,1.82,2.9,3.85,4,7.81,5"/><path class="cls-1" d="M10.55,8.81a2.12,2.12,0,1,0,2.12,2.12,2.12,2.12,0,0,0-2.12-2.12Z"/></g></g></svg>