<svg xmlns="http://www.w3.org/2000/svg" viewBox="0 0 45.66 44.92"><defs><style>.cls-1{fill:none;stroke:#fff;stroke-linecap:round;stroke-linejoin:round;stroke-width:0.75px;}</style></defs><title>leisure</title><g id="Слой_2" data-name="Слой 2"><g id="Layer_1" data-name="Layer 1"><polyline class="cls-1" points="2.29 40.61 19.05 9.4 31.49 33.84"/><polyline class="cls-1" points="27.82 25.92 31.39 21.62 37.23 30.36 39.66 27.84 45.29 37.6"/><path class="cls-1" d="M21.63,36.83a1.93,1.93,0,0,1-.1-.6h0a1.81,1.81,0,0,1,1.81-1.8H33a1.81,1.81,0,0,1,1.81,1.8h0a1.74,1.74,0,0,1-.2.82h4.19a2.38,2.38,0,0,1,2.4,2h0a2.39,2.39,0,0,1-2.4,2H36.15a2,2,0,0,1,1,1.73h0a2,2,0,0,1-1,1.74H11.91c-4.56-.1-3.52-4.46,0-4.36h2.86a2.51,2.51,0,0,1-.08-.62h0A2.73,2.73,0,0,1,17,36.83Z"/><path class="cls-1" d="M7.67,30.21l-5.38-.05A1.92,1.92,0,0,1,.38,28.25h0a1.92,1.92,0,0,1,1.91-1.92H5.15a1.91,1.91,0,0,1-.93-1.64h0a1.92,1.92,0,0,1,1.91-1.92h5.74"/><path class="cls-1" d="M36,5.92a3.74,3.74,0,1,1-3.73,3.74A3.73,3.73,0,0,1,36,5.92Z"/><line class="cls-1" x1="36.06" y1="0.38" x2="36.06" y2="3"/><line class="cls-1" x1="29.48" y1="3.05" x2="31.34" y2="4.91"/><line class="cls-1" x1="26.72" y1="9.6" x2="29.35" y2="9.6"/><line class="cls-1" x1="29.4" y1="16.18" x2="31.25" y2="14.32"/><line class="cls-1" x1="35.94" y1="18.94" x2="35.94" y2="16.31"/><line class="cls-1" x1="42.52" y1="16.26" x2="40.67" y2="14.41"/><line class="cls-1" x1="45.29" y1="9.72" x2="42.66" y2="9.72"/><line class="cls-1" x1="42.61" y1="3.14" x2="40.75" y2="4.99"/></g></g></svg>