<svg xmlns="http://www.w3.org/2000/svg" viewBox="0 0 47.94 44.77"><defs><style>.cls-1{fill:#fff;}</style></defs><title>tattoo</title><g id="Слой_2" data-name="Слой 2"><g id="Layer_1" data-name="Layer 1"><path class="cls-1" d="M.25,44.77a.28.28,0,0,1-.13,0A.26.26,0,0,1,0,44.49l.5-3.23a5.76,5.76,0,0,1,.77-2.12l2.31-3.79-.16-.18a3.06,3.06,0,0,1-.31-3.63l6.11-10A3.05,3.05,0,0,1,11.86,20a3.2,3.2,0,0,1,.75.09l.24.06,1.53-2.5-1.8-1.1a.24.24,0,0,1-.08-.34L13.28,15l-1.93-1.18-.79,1.29a.24.24,0,0,1-.21.12.33.33,0,0,1-.13,0l-1.3-.8a1.46,1.46,0,0,1-.66-.89,1.43,1.43,0,0,1,.17-1.09L9,11.41a1.45,1.45,0,0,1,2-.48l1.3.79a.25.25,0,0,1,.09.34l-.78,1.29,1.93,1.17.78-1.28a.21.21,0,0,1,.15-.11h.06a.2.2,0,0,1,.13,0l1.8,1.09L17.21,13a1.89,1.89,0,0,1,1.18-.85,1.74,1.74,0,0,1,.45-.06,1.89,1.89,0,0,1,.53.08l.24.07,5-8.21-.19-.18A2.24,2.24,0,0,1,27.16.33a2.21,2.21,0,0,1,1,1.38A2.27,2.27,0,0,1,28.12,3L28,3.2l1.68,1,.78-1.28a.21.21,0,0,1,.15-.11h.06a.2.2,0,0,1,.13,0l17,10.33a.26.26,0,0,1,.08.35l-1.82,3a.24.24,0,0,1-.21.12.28.28,0,0,1-.13,0L41,13.72l-.85,1.4,1.42.86a2.1,2.1,0,0,1,.7,2.88l-3,4.92a2.06,2.06,0,0,1-1.79,1,2.08,2.08,0,0,1-1.09-.3L35,23.62,34.13,25l4.74,2.89a.21.21,0,0,1,.11.15.22.22,0,0,1,0,.19l-1.82,3a.24.24,0,0,1-.21.12.2.2,0,0,1-.13,0L17.62,19.64,16.1,22.15l.16.18A3.12,3.12,0,0,1,16.59,26L10.48,36A3.08,3.08,0,0,1,7.84,37.5a3,3,0,0,1-.73-.09l-.24,0-2.3,3.78A6,6,0,0,1,3,42.81L.4,44.73A.28.28,0,0,1,.25,44.77ZM1.7,39.4A5.34,5.34,0,0,0,1,41.34L.59,44,2.74,42.4a5.21,5.21,0,0,0,1.4-1.52l2.27-3.72L4,35.67ZM11.86,20.51a2.58,2.58,0,0,0-2.22,1.25l-6.11,10a2.59,2.59,0,0,0,.87,3.55l2.09,1.28a2.58,2.58,0,0,0,3.56-.87l6.11-10a2.61,2.61,0,0,0-.86-3.56l-2.1-1.28A2.57,2.57,0,0,0,11.86,20.51Zm1.19-4.23L36.83,30.76l1.57-2.57L14.61,13.71Zm12.23,3.34,8.42,5.13.85-1.39-1.42-.86a2.07,2.07,0,0,1-1-1.29,2.11,2.11,0,0,1,.25-1.59l3-4.92a2.08,2.08,0,0,1,1.79-1,2.12,2.12,0,0,1,1.09.31l1.41.86.85-1.39L32.15,8.34,31.3,9.73l1.42.86a2.11,2.11,0,0,1,.7,2.89l-3,4.92a2.08,2.08,0,0,1-1.79,1,2.12,2.12,0,0,1-1.09-.31l-1.41-.86Zm11.94-5.43a1.6,1.6,0,0,0-1.37.77l-3,4.92a1.62,1.62,0,0,0,.54,2.2l3.26,2a1.6,1.6,0,0,0,.83.23,1.57,1.57,0,0,0,1.36-.76l3-4.93a1.59,1.59,0,0,0-.53-2.19l-3.26-2A1.62,1.62,0,0,0,37.22,14.19ZM13.31,20.37l2.4,1.46,1.49-2.45-2.4-1.45ZM20,12.5l.18.18a1.9,1.9,0,0,1,.24,2.3l-.76,1.25,5.16,3.13L25.7,18l-1.42-.86a2.1,2.1,0,0,1-.94-1.3,2.07,2.07,0,0,1,.24-1.59l3-4.92a2.08,2.08,0,0,1,2.88-.7l1.42.86.85-1.39-3-1.81a.24.24,0,0,1-.08-.34l.78-1.28-1.68-1-.19.19a2.22,2.22,0,0,1-1.6.67,2.38,2.38,0,0,1-.7-.11L25,4.29Zm8.33-3.7A1.58,1.58,0,0,0,27,9.57l-3,4.92a1.61,1.61,0,0,0-.19,1.21,1.58,1.58,0,0,0,.72,1l3.26,2a1.54,1.54,0,0,0,.83.24A1.6,1.6,0,0,0,30,18.14l3-4.92A1.61,1.61,0,0,0,33.18,12a1.55,1.55,0,0,0-.72-1L29.2,9A1.54,1.54,0,0,0,28.37,8.8ZM29.23,6,45.79,16.06l1.56-2.57L30.8,3.41ZM18.84,12.59a1.24,1.24,0,0,0-.33,0,1.4,1.4,0,0,0-.87.63l-.76,1.25L19.28,16,20,14.72a1.41,1.41,0,0,0-.47-1.93A1.43,1.43,0,0,0,18.84,12.59Zm-8.59-1.38a1,1,0,0,0-.82.46l-.57.94a1,1,0,0,0-.11.72.93.93,0,0,0,.43.59l1.09.66L11.83,12l-1.09-.67A1,1,0,0,0,10.25,11.21Zm15.4-8.65a.31.31,0,0,1,.13,0,.25.25,0,0,1,.08.34l-.6,1,.52.06H26a1.73,1.73,0,0,0,1.49-.84A1.74,1.74,0,0,0,26.9.75,1.83,1.83,0,0,0,26,.5a1.75,1.75,0,0,0-1.44,2.73l.29.43.6-1A.22.22,0,0,1,25.65,2.56Z"/></g></g></svg>