<svg xmlns="http://www.w3.org/2000/svg" width="39.06" height="75.718" viewBox="0 0 39.06 75.718">
  <metadata><?xpacket begin="﻿" id="W5M0MpCehiHzreSzNTczkc9d"?>
<x:xmpmeta xmlns:x="adobe:ns:meta/" x:xmptk="Adobe XMP Core 5.6-c140 79.160451, 2017/05/06-01:08:21        ">
   <rdf:RDF xmlns:rdf="http://www.w3.org/1999/02/22-rdf-syntax-ns#">
      <rdf:Description rdf:about=""/>
   </rdf:RDF>
</x:xmpmeta>
                                                                                                    
                                                                                                    
                                                                                                    
                                                                                                    
                                                                                                    
                                                                                                    
                                                                                                    
                                                                                                    
                                                                                                    
                                                                                                    
                                                                                                    
                                                                                                    
                                                                                                    
                                                                                                    
                                                                                                    
                                                                                                    
                                                                                                    
                                                                                                    
                                                                                                    
                                                                                                    
                           
<?xpacket end="w"?></metadata>
<defs>
    <style>
      .cls-1 {
        fill: #fff;
        fill-rule: evenodd;
      }
    </style>
  </defs>
  <path id="_" data-name="?" class="cls-1" d="M1094.27,164.392v-1.958c-0.11-4.9,1.53-9.139,5.55-13.6,4.14-4.569,9.25-10.009,9.25-18.277,0-9.03-6.53-16.971-20.89-16.971a37.349,37.349,0,0,0-18.17,4.46l3.7,11.858a20.548,20.548,0,0,1,10.77-3.264c5.44,0.218,7.94,2.72,7.94,6.528,0,3.7-2.82,7.18-6.31,11.314-4.89,5.875-6.74,11.532-6.41,17.08l0.1,2.829h14.47Zm-7.61,24.913c5.87,0,9.79-4.243,9.79-9.9-0.11-5.766-3.92-9.9-9.79-9.9-5.66,0-9.68,4.134-9.68,9.9C1076.98,185.062,1080.89,189.305,1086.66,189.305Z" transform="translate(-1070 -113.594)"/>
</svg>
