<svg xmlns="http://www.w3.org/2000/svg" viewBox="0 0 55.85 29.27"><defs><style>.cls-1{fill:#0485b7;}</style></defs><title>logo</title><g id="Слой_2" data-name="Слой 2"><g id="Layer_1" data-name="Layer 1"><polyline class="cls-1" points="15.45 0 27.28 0 34.28 8.04 21.99 8.04 20.58 6.54 8.56 6.54 15.45 0"/><polyline class="cls-1" points="12.57 29.27 6.91 22.66 19.09 22.66 20.73 21.13 32.94 21.13 24.4 29.27 12.57 29.27"/><polyline class="cls-1" points="0 14.64 7.04 8 19.07 8 11.78 14.64 17.63 21.17 5.62 21.17 0 14.64"/><path class="cls-1" d="M50.59,15.32H45.85a1,1,0,0,1-.9-.93,1.17,1.17,0,0,1,0-.32l.41-1.17a4.21,4.21,0,0,1,4.07-2.66h6.38l-.51,1.46H50.81a2.44,2.44,0,0,0-2.52,1.35l0,0-.06.16c-.07.21-.2.67-.2.67H53.7a1,1,0,0,1,.9.93.83.83,0,0,1-.05.32l-.47,1.39a4.37,4.37,0,0,1-4,2.47H43.43L44,17.49h4.93c1.19,0,2-.44,2.27-1.22l.1-.28,0-.13a4.08,4.08,0,0,0,.12-.54h-.83"/><path class="cls-1" d="M30.17,12.92a4.22,4.22,0,0,1,4.08-2.66h6.41l-.5,1.46H35.59a2.44,2.44,0,0,0-2.52,1.35l-1.22,3.67a.47.47,0,0,0,0,.17.62.62,0,0,0,.58.6h1.06a2.17,2.17,0,0,0,2.26-1.22l.34-.95H34.28L34.75,14h4.8l-.9,2.65a4.36,4.36,0,0,1-4,2.46H30a1.39,1.39,0,0,1-1.3-1.88l1.45-4.26"/><path class="cls-1" d="M19,19.06h-.13a1,1,0,0,1-1-1,1.19,1.19,0,0,1,0-.33l.1-.27,2.49-7.24h9.56l-.5,1.46H23.5a.72.72,0,0,0-.68.45L22.25,14h5l-.47,1.39h-5s-.51,1.52-.55,1.62,0,.55.46.55h6.23l-.52,1.55H19"/><path class="cls-1" d="M40.58,19.06h-.2a1,1,0,0,1-1-1,.91.91,0,0,1,0-.33l.09-.27.09-.24,2.4-7h3.12l-3,8.8H40.58"/></g></g></svg>