<svg xmlns="http://www.w3.org/2000/svg" viewBox="0 0 89.55 24"><defs><style>.cls-1{fill:#454444;}.cls-2{fill:#36b398;}</style></defs><title>eapteka</title><g id="Слой_2" data-name="Слой 2"><g id="Layer_1" data-name="Layer 1"><path class="cls-1" d="M26.78,14.71c.3,0,.42-.12.42-.41v-.46c0-.28-.12-.4-.42-.4h-3.1V11.87H26.2c.3,0,.42-.12.42-.4V11c0-.28-.12-.4-.42-.4H23.68V9.12h3c.3,0,.43-.13.43-.4V8.25c0-.27-.13-.4-.43-.4h-4c-.3,0-.43.13-.43.4V14.3c0,.28.13.41.43.41Z"/><path class="cls-1" d="M34.33,14.71h.52a.36.36,0,0,0,.31-.12.33.33,0,0,0,0-.31L32.65,8.15a.46.46,0,0,0-.5-.31h-.53a.45.45,0,0,0-.5.32l-2.51,6.12a.33.33,0,0,0,0,.31.34.34,0,0,0,.3.12h.47c.4,0,.59-.05.69-.34l.46-1.16h2.66l.44,1.16C33.73,14.66,33.93,14.71,34.33,14.71Zm-3.39-2.63.73-1.89a3.42,3.42,0,0,0,.19-.73,6.7,6.7,0,0,0,.19.74l.73,1.88Z"/><path class="cls-1" d="M41.88,7.85H37.12c-.29,0-.43.13-.43.4V14.3c0,.28.14.41.43.41h.58c.29,0,.42-.12.42-.41V9.12h2.76V14.3c0,.29.13.41.43.41h.57c.29,0,.42-.12.42-.41V8.25C42.3,8,42.17,7.85,41.88,7.85Z"/><path class="cls-1" d="M49.14,7.85H44.41c-.29,0-.42.12-.42.4v.47c0,.28.13.4.42.4h1.65V14.3c0,.29.13.41.42.41h.59c.29,0,.42-.12.42-.41V9.12h1.65c.29,0,.42-.12.42-.4V8.25C49.56,8,49.43,7.85,49.14,7.85Z"/><path class="cls-1" d="M51.67,14.71h4.1c.29,0,.42-.12.42-.41v-.46c0-.28-.13-.4-.42-.4H52.66V11.87h2.53c.29,0,.42-.12.42-.4V11c0-.28-.13-.4-.42-.4H52.66V9.12h3c.3,0,.43-.13.43-.4V8.25c0-.27-.13-.4-.43-.4h-4c-.3,0-.43.13-.43.4V14.3C51.24,14.58,51.37,14.71,51.67,14.71Z"/><path class="cls-1" d="M62.82,14.71h.58c.14,0,.24,0,.28-.12a.3.3,0,0,0,0-.32L62.36,12a2.41,2.41,0,0,0-1-1.07l2.17-2.61a.3.3,0,0,0,.07-.3.3.3,0,0,0-.29-.14h-.65c-.4,0-.55,0-.74.3l-2,2.46h-.41V8.25c0-.28-.13-.4-.42-.4h-.58c-.3,0-.43.13-.43.4V14.3c0,.28.13.41.43.41h.58c.29,0,.42-.12.42-.41V11.85h.43a1.62,1.62,0,0,1,.71.12,1.47,1.47,0,0,1,.42.5l1,1.91C62.2,14.66,62.37,14.71,62.82,14.71Z"/><path class="cls-1" d="M70.62,14.71h.53a.33.33,0,0,0,.3-.12.33.33,0,0,0,0-.31L68.94,8.15a.44.44,0,0,0-.5-.31h-.53a.45.45,0,0,0-.5.32L64.9,14.28a.33.33,0,0,0,0,.31.36.36,0,0,0,.31.12h.46c.4,0,.6-.05.7-.34l.45-1.16h2.66l.45,1.16C70,14.66,70.22,14.71,70.62,14.71Zm-3.39-2.63L68,10.19a4.14,4.14,0,0,0,.19-.73,5,5,0,0,0,.19.74l.72,1.88Z"/><path class="cls-1" d="M73.55,14.77c.53,0,.72-.18.72-.68V14c0-.5-.19-.68-.72-.68h-.07c-.54,0-.73.18-.73.68v.09c0,.5.19.68.73.68Z"/><path class="cls-1" d="M81.67,14.7c.15,0,.24,0,.28-.11a.3.3,0,0,0,0-.32l-1.1-2a1.47,1.47,0,0,0-.24-.34A1.91,1.91,0,0,0,81.82,10a2.09,2.09,0,0,0-2.34-2.16H76.7c-.29,0-.43.13-.43.4V14.3c0,.28.14.4.43.4h.58c.29,0,.42-.11.42-.4V12.16h.66c.66,0,.87.12,1.13.62l.84,1.6c.15.28.31.32.76.32Zm-1.58-4h0a1.05,1.05,0,0,1-.73.24H77.7V9.12h1.66a1.08,1.08,0,0,1,.73.22.89.89,0,0,1,.24.67A.82.82,0,0,1,80.09,10.66Z"/><path class="cls-1" d="M89.13,7.85h-.58c-.29,0-.42.12-.42.4v4.09c0,.81-.5,1.24-1.46,1.24s-1.47-.43-1.47-1.24V8.25c0-.28-.13-.4-.42-.4h-.59c-.29,0-.42.12-.42.4v4.08c0,1.57,1.08,2.52,2.9,2.52s2.88-.95,2.88-2.52V8.25C89.55,8,89.42,7.85,89.13,7.85Z"/><path class="cls-1" d="M25.41,20.53h-.22V18.19c0-.11,0-.15-.14-.15H23.37c-.1,0-.14,0-.14.15v.86a3.56,3.56,0,0,1-.12,1.11.76.76,0,0,1-.26.37h-.1c-.11,0-.14,0-.14.15v.84c0,.11,0,.15.14.15H23c.1,0,.14,0,.14-.15V21H25v.5c0,.11,0,.15.14.15h.23c.11,0,.14,0,.14-.15v-.84C25.55,20.57,25.52,20.53,25.41,20.53Zm-.75,0h-1.2a2.86,2.86,0,0,0,.28-1.48v-.52h.92Z"/><path class="cls-1" d="M27.7,18a1.05,1.05,0,0,0-1.2,1.1V20a1.05,1.05,0,0,0,1.2,1.1A1,1,0,0,0,28.89,20v-.91A1,1,0,0,0,27.7,18Zm.67,2c0,.38-.24.6-.67.6S27,20.39,27,20v-.93c0-.39.24-.6.68-.6s.67.22.67.6Z"/><path class="cls-1" d="M32.24,20.2,32,20.12c-.1,0-.14,0-.19.09a.6.6,0,0,1-.64.39c-.43,0-.67-.22-.67-.6v-.93c0-.39.24-.6.67-.6a.6.6,0,0,1,.64.39c0,.1.08.12.18.09l.24-.08a.13.13,0,0,0,.08-.19,1.07,1.07,0,0,0-1.14-.7A1.05,1.05,0,0,0,30,19.07V20a1.05,1.05,0,0,0,1.2,1.1,1.09,1.09,0,0,0,1.15-.71A.13.13,0,0,0,32.24,20.2Z"/><path class="cls-1" d="M35.31,18h-2c-.11,0-.14,0-.14.15v.2c0,.11,0,.14.14.14h.72v2.35c0,.11,0,.14.14.14h.25c.1,0,.14,0,.14-.14V18.53h.72c.11,0,.15,0,.15-.14v-.2C35.46,18.08,35.42,18,35.31,18Z"/><path class="cls-1" d="M37.59,18.15a.16.16,0,0,0-.18-.11h-.22a.16.16,0,0,0-.18.12l-1,2.73c0,.09,0,.13.1.13h.19c.17,0,.23,0,.26-.12l.2-.54h1.16l.19.54c0,.1.09.12.26.12h.22c.1,0,.13,0,.1-.13Zm-.73,1.77.32-.89a1.56,1.56,0,0,0,.09-.5h0v.07a2.45,2.45,0,0,0,.09.44l.32.88Z"/><path class="cls-1" d="M41.45,19.48v0a.65.65,0,0,0,.32-.63.75.75,0,0,0-.86-.79H39.75c-.11,0-.15,0-.15.15v2.69c0,.11,0,.14.15.14h1.18c.57,0,1-.3,1-.81A.67.67,0,0,0,41.45,19.48Zm-1.32-.95h.72a.34.34,0,0,1,.38.37.33.33,0,0,1-.38.37h-.72Zm.79,2h-.79v-.78h.79a.35.35,0,0,1,.4.4C41.32,20.4,41.19,20.53,40.92,20.53Z"/><path class="cls-1" d="M45.22,18H45a.15.15,0,0,0-.14.07l-.94,1.44a4.2,4.2,0,0,0-.44.83h0q.06-.3.09-.48c0-.12,0-.28,0-.5V18.19c0-.11,0-.15-.14-.15h-.24c-.1,0-.15,0-.15.15v2.69c0,.11,0,.14.15.14h.24a.16.16,0,0,0,.15-.07l1-1.46a5.7,5.7,0,0,0,.42-.8h0a3,3,0,0,0-.08.47,3,3,0,0,0,0,.49v1.23c0,.11,0,.14.15.14h.24c.1,0,.14,0,.14-.14V18.19C45.36,18.08,45.32,18,45.22,18Z"/><path class="cls-1" d="M48.5,18h-2c-.1,0-.14,0-.14.15v.2c0,.11,0,.14.14.14h.72v2.35c0,.11,0,.14.15.14h.24c.1,0,.14,0,.14-.14V18.53h.72c.11,0,.15,0,.15-.14v-.2C48.65,18.08,48.61,18,48.5,18Z"/><path class="cls-1" d="M53.09,19.47a.66.66,0,0,0,.34-.63c0-.55-.36-.86-1-.86a1.16,1.16,0,0,0-1.23.7.14.14,0,0,0,.09.19l.23.08c.1,0,.14,0,.18-.09.1-.27.29-.39.7-.39s.5.14.5.41a.36.36,0,0,1-.4.39H52c-.11,0-.14,0-.14.15v.19c0,.1,0,.14.14.14h.59a.37.37,0,0,1,.41.42c0,.28-.19.43-.55.43s-.66-.13-.75-.39c0-.1-.08-.13-.18-.09l-.23.08q-.15,0-.09.18c.16.47.58.71,1.25.71s1.1-.33,1.1-.9A.71.71,0,0,0,53.09,19.47Z"/><path class="cls-1" d="M56,18.15A.16.16,0,0,0,55.8,18h-.22a.16.16,0,0,0-.18.12l-1,2.73c0,.09,0,.13.1.13h.19c.17,0,.23,0,.26-.12l.2-.54h1.16l.19.54c0,.1.09.12.26.12h.22c.1,0,.13,0,.1-.13Zm-.74,1.77.33-.89a1.56,1.56,0,0,0,.09-.5h0v.07a4.21,4.21,0,0,0,.1.44l.32.88Z"/><path class="cls-1" d="M59.72,19.86a1,1,0,0,0-.45-.48l.93-1.2c.06-.07,0-.14-.06-.14h-.27c-.17,0-.22,0-.29.12l-.84,1.11h-.22V18.19c0-.11,0-.15-.15-.15h-.24c-.1,0-.14,0-.14.15v2.69c0,.11,0,.15.14.15h.24c.11,0,.15,0,.15-.15V19.75h.21a.6.6,0,0,1,.31.06.54.54,0,0,1,.19.24l.42.85c.05.1.1.13.29.13h.24c.1,0,.12-.05.07-.15Z"/><path class="cls-1" d="M62.72,18.15c0-.09-.07-.11-.17-.11h-.23c-.1,0-.13,0-.17.12l-1,2.73c0,.09,0,.13.09.13h.2c.17,0,.22,0,.26-.12l.2-.54H63l.2.54c0,.1.09.12.26.12h.22c.09,0,.13,0,.09-.13ZM62,19.92l.33-.89a1.56,1.56,0,0,0,.09-.5h0v.07a2.61,2.61,0,0,0,.1.44l.32.88Z"/><path class="cls-1" d="M66.51,19.47a.66.66,0,0,0,.34-.63c0-.55-.36-.86-1-.86a1.16,1.16,0,0,0-1.23.7.14.14,0,0,0,.09.19l.23.08c.1,0,.14,0,.18-.09.1-.27.29-.39.7-.39s.5.14.5.41a.36.36,0,0,1-.4.39h-.52c-.11,0-.14,0-.14.15v.19c0,.1,0,.14.14.14H66a.37.37,0,0,1,.41.42c0,.28-.19.43-.55.43s-.66-.13-.75-.39c0-.1-.08-.13-.18-.09l-.23.08q-.15,0-.09.18c.16.47.58.71,1.25.71s1.1-.33,1.1-.9A.71.71,0,0,0,66.51,19.47Z"/><path class="cls-1" d="M71,19.2h-.8v-.67h1.37c.11,0,.14,0,.14-.14v-.2c0-.11,0-.15-.14-.15H69.77c-.11,0-.15,0-.15.15v2.7c0,.1,0,.13.14.13H71a.91.91,0,1,0,0-1.82Zm.26,1.22a.42.42,0,0,1-.32.11h-.74v-.84h.74a.42.42,0,0,1,.32.12.41.41,0,0,1,.11.3A.45.45,0,0,1,71.21,20.42Z"/><path class="cls-1" d="M76,18H75.8c-.11,0-.15,0-.15.15v2.69c0,.11,0,.15.15.15H76c.1,0,.14,0,.14-.15V18.19C76.18,18.08,76.14,18,76,18Z"/><path class="cls-1" d="M74.22,19.08h-.73v-.89c0-.11,0-.15-.15-.15H73.1c-.1,0-.14,0-.14.15v2.69c0,.11,0,.15.14.15h1.12a1,1,0,1,0,0-2Zm0,1.45h-.68v-1h.68a.48.48,0,0,1,0,1Z"/><path class="cls-1" d="M79.61,20.2l-.23-.08c-.1,0-.14,0-.19.09a.6.6,0,0,1-.64.39c-.43,0-.67-.22-.67-.6v-.93c0-.39.24-.6.67-.6a.6.6,0,0,1,.64.39c0,.1.08.12.18.09l.24-.08a.13.13,0,0,0,.08-.19,1.07,1.07,0,0,0-1.14-.7,1.05,1.05,0,0,0-1.2,1.09V20a1.05,1.05,0,0,0,1.2,1.1,1.09,1.09,0,0,0,1.15-.71A.13.13,0,0,0,79.61,20.2Z"/><path class="cls-1" d="M82.68,18h-2c-.11,0-.14,0-.14.15v.2c0,.11,0,.14.14.14h.72v2.35c0,.11,0,.14.14.14h.25c.1,0,.14,0,.14-.14V18.53h.72c.11,0,.15,0,.15-.14v-.2C82.83,18.08,82.79,18,82.68,18Z"/><path class="cls-1" d="M85.11,18H84c-.11,0-.15,0-.15.15v2.69c0,.11,0,.14.15.14h.24c.1,0,.14,0,.14-.14V20h.73a1,1,0,1,0,0-1.95Zm0,1.46h-.68v-1h.68a.49.49,0,1,1,0,1Z"/><path class="cls-1" d="M88.3,18a1.06,1.06,0,0,0-1.21,1.1V20a1.06,1.06,0,0,0,1.21,1.1A1,1,0,0,0,89.49,20v-.91A1,1,0,0,0,88.3,18ZM89,20c0,.38-.24.6-.67.6s-.68-.21-.68-.6v-.93c0-.39.24-.6.68-.6s.67.22.67.6Z"/><polygon class="cls-2" points="10.17 9.03 11.08 9.03 11.08 7.98 12.13 7.98 12.13 7.07 11.08 7.07 11.08 6.02 10.17 6.02 10.17 7.07 9.12 7.07 9.12 7.98 10.17 7.98 10.17 9.03"/><path class="cls-2" d="M17.38,12V4.48L10.64,0,3.88,4.5V7.07H0v4.16l6,4L4.37,16.33v3.11l2,1.34v.8L3.57,23.45l.81.55,2.87-1.94v-3.3l2-1.34v4.66L12.09,24l.77-.56-2.72-1.82V19.51l4.29,2.85.8-.54-5.09-3.39V16.81ZM.91,10.75V8h3v2.48L6.81,12.4l3.12-2.08L7.7,8.82V6.27l2.93-2,2.95,2v3.85L9.23,13.05,6.78,14.7Zm8.32,5.56-2.9,1.94v1.13h0v.29l-1-.72V16.81l9.22-6.17V5.79L10.63,3.23,6.78,5.8V9.31l1.53,1-1.51,1L4.79,10V5l5.85-3.89L16.46,5v6.57Z"/></g></g></svg>