<svg version="1" xmlns="http://www.w3.org/2000/svg" width="341.333" height="341.333" viewBox="0 0 256.000000 256.000000"><path d="M67.4 82.9L54.3 95.8h21.6c11.9 0 22.1.1 22.8.1.7.1 2.7 1.4 4.5 3l3.3 2.8 21 .1c14.3 0 21.5-.4 22.4-1.2 1.2-.8 1.3-.8.7.1-.4.7-.2 1.3.3 1.3 1.9 0 1.2-1.4-3.2-6.2-2.3-2.6-5.4-6.2-6.9-8-2.8-3.4-4.3-5.1-10.9-13l-4-4.6h-22.7l-22.7-.1-13.1 12.8zM62.8 101.8l-14.7.3-3.8 3.6c-2.1 1.9-3.7 3.9-3.6 4.4.2.5-.1.8-.6.6-.5-.1-4.8 3.6-9.6 8.2-6.7 6.6-8.5 8.8-7.8 10.2.4.9 5.1 6.8 10.3 13.1l9.5 11.5 22.7.1c25.8 0 24.5.7 16.4-8.1-2.5-2.7-6-6.7-7.8-9-1.8-2.2-4.1-4.8-5-5.6-1-.9-1.8-2.1-1.8-2.7 0-1.1 4.4-5.7 12.5-13 8.6-7.7 13.6-12.7 13.2-13.1-.7-.6-13.2-.8-29.9-.5z"/><path d="M102.8 110.8c-3 .4-2.9.3-9.3 19.5-2 6-3.3 11.7-3 12.8.7 2.2.1 2.1 20.4 2.3 15.2.1 15.3.1 16.2-2.2.5-1.3.9-2.6.9-3 0-.4-5.1-.7-11.2-.7-15.3.1-14.9.3-13.2-4.8l1.4-4.2 9.4.1c9 0 9.5-.1 10.5-2.3.6-1.3 1.1-2.5 1.1-2.6 0-.2-3.9-.2-8.7-.2-11.5.2-11.5.2-9.6-4.3.8-2 1.7-3.9 2-4.2.2-.3 5.9-.5 12.5-.6 12-.1 12.1-.1 13.5-2.7l1.4-2.7-6.8-.1c-3.7 0-10.8-.1-15.8-.2-4.9-.1-10.2-.1-11.7.1zM149.3 111.3c-3.8.7-12 6.4-10.9 7.5.3.3.2 1-.3 1.6-.5.6-2.3 5.3-4 10.5-3 8.7-3.1 9.5-1.6 11.7.8 1.3 2.1 2.4 2.8 2.5.6 0 5.4.2 10.6.3 15.7.3 21.3-2.6 24.7-12.9.9-2.8 1.9-5.5 2.1-6.1.2-.7-2.7-1-8.6-1-8.4 0-9.1.2-10 2.4-1.5 3.1-1.6 3 2.4 2.8 1.9-.1 3.5 0 3.5.2s-.7 1.9-1.6 3.8c-1.1 2.3-2.6 3.7-4.8 4.3-3.8 1-8.7.5-9.7-1-.4-.6.6-5.1 2.3-9.9 3.6-11 4.4-11.4 18.6-11.5 10.5 0 10.7-.1 11.4-2.4.4-1.4.6-2.7.4-2.9-.8-.7-23.5-.7-27.3.1zM188.1 111l-5.4.5-3.7 10.7c-2 6-3.5 10.8-3.2 10.8.2 0 0 .6-.6 1.3-1.9 2.2-2.7 9.6-1.1 10.1 3.4 1.2 7.9 1.3 8.7.3 1.3-1.6 11.4-32.5 11-33.5-.2-.4-2.7-.5-5.7-.2zM208.9 111.1c-7.9 1.3-13.3 6.9-14.4 15-.5 3.8 1.8 4.6 12.8 4.5 5.4-.1 10.3.1 10.8.5 1.5.9-.7 5.6-3.3 7-1.3.7-6.7 1.2-13.1 1.3-10.8.1-10.9.1-12.3 2.8l-1.5 2.8 3.8.1c16.7.2 24.8-.1 28-1.1 4.7-1.5 9-6.2 10.4-11.5 1.8-6.5 1-7-12.5-7-10.6 0-11.6-.2-11.6-1.8 0-1.1 1.3-3.1 2.9-4.6 2.8-2.6 3.4-2.7 13.4-2.8 5.8 0 11-.4 11.6-.7.6-.4 1.1-1.7 1.1-2.9 0-2.1-.3-2.2-11.3-2.2-6.3 0-12.9.3-14.8.6zM106 153.8c-4.5.3-6.1.9-8.5 3.2l-3 2.9H73c-26.9 0-25.7 0-24.5.9.6.4 2.6 2.7 4.5 5.2s4.3 5.4 5.3 6.5c1.1 1.1 3.9 4.6 6.4 7.7l4.5 5.7h45.5l11.4-11.1c6.3-6 11.3-11.4 11.2-11.9-.2-.5 0-.8.5-.7.4.2 2.7-1.6 5.2-4 4.3-3.9 4.4-4.2 2-4.2-13.1-.4-34.6-.4-39-.2z"/></svg>