<svg id="Layer_1" data-name="Layer 1" xmlns="http://www.w3.org/2000/svg" xmlns:xlink="http://www.w3.org/1999/xlink" viewBox="0 0 135.39 148.37"><defs><style>.cls-1{fill:none;}.cls-2{clip-path:url(#clip-path);}.cls-3{fill:#eff5fa;}.cls-4{fill:#fff;}.cls-5{fill:#2075bc;}.cls-6{fill:#4a92c9;}.cls-7{fill:#f9b0a2;}.cls-8{fill:#e67b7d;}</style><clipPath id="clip-path" transform="translate(0 16.98)"><circle class="cls-1" cx="60" cy="60" r="60"/></clipPath></defs><title>химический ожог</title><g class="cls-2"><line class="cls-3" x1="47.28" y1="66.87" x2="54.34" y2="64.11"/><path class="cls-4" d="M81-15.3l-55.79,6s2.36,65.49,10.05,81.9c4,8.6,60.58,48.74,70.35,56.88l27.69-19.95C99.13,59.88,82,48.89,79.59,41.57S81-15.3,81-15.3Z" transform="translate(0 16.98)"/><path class="cls-5" d="M90,52.41C84.9,46.9,81.84,43.57,81,41.09c-1.92-5.77.44-42.58,1.51-56.28l.14-1.8-59,6.34,0,1.4c.1,2.69,2.46,66,10.19,82.49,2.83,6,27.11,24.53,53.89,44.56,7.91,5.92,14.16,10.59,16.85,12.84l.89.74,29.82-21.49-.83-1.21C113.29,77.81,98.69,61.91,90,52.41Zm15.74,75.19c-3.09-2.48-8.9-6.83-16.07-12.2C70.83,101.35,39.4,77.83,36.65,72,29.78,57.32,27.19,1.6,26.79-8l52.6-5.66C78.65-3.75,75.89,35.2,78.17,42c1,3.09,4.07,6.39,9.58,12.39,8.56,9.32,22.81,24.83,43.5,54.75Z" transform="translate(0 16.98)"/><path class="cls-6" d="M90,52.41C84.9,46.9,81.84,43.57,81,41.09c-1.92-5.77.44-42.58,1.51-56.28l.14-1.8-59,6.34,0,1.4c.1,2.69,2.46,66,10.19,82.49,2.83,6,27.11,24.53,53.89,44.56,7.91,5.92,14.16,10.59,16.85,12.84l.89.74,29.82-21.49-.83-1.21C113.29,77.81,98.69,61.91,90,52.41Zm15.74,75.19c-3.09-2.48-8.9-6.83-16.07-12.2C70.83,101.35,39.4,77.83,36.65,72,29.78,57.32,27.19,1.6,26.79-8l52.6-5.66C78.65-3.75,75.89,35.2,78.17,42c1,3.09,4.07,6.39,9.58,12.39,8.56,9.32,22.81,24.83,43.5,54.75Z" transform="translate(0 16.98)"/><path class="cls-6" d="M83.18,46.32A15.65,15.65,0,0,0,81.93,44c-.28-.45-.62-.91-1-1.39a13.38,13.38,0,0,0-1.24-1.42,19.56,19.56,0,0,0-1.54-1.31c-.54-.43-1.09-.86-1.63-1.31l-1.6-1.33c-.52-.45-1.07-.85-1.58-1.25l-1.49-1.15c-.47-.37-.93-.7-1.36-1-1.7-1.22-2.86-2-2.86-2l-.2.23s.92,1.05,2.33,2.58c.36.38.74.79,1.13,1.24l1.25,1.39,2.71,3c.46.51.9,1,1.32,1.58a19.4,19.4,0,0,0,1.3,1.51,20.1,20.1,0,0,0,2.71,2.27,18.87,18.87,0,0,0,2.19,1.36l.68.33.25.11.22-.2s0-.09-.08-.26S83.31,46.62,83.18,46.32Z" transform="translate(0 16.98)"/></g><line class="cls-3" x1="50.88" y1="68.67" x2="57.93" y2="65.91"/><path class="cls-7" d="M50.91,43.58c-5.67.06-8.11,3.11-10.19,7.84-1.32,3,4.67,7.68,10.34,7.63s11.8-5.54,10.19-7.84C56.86,45,56.57,43.53,50.91,43.58Z" transform="translate(0 16.98)"/><path class="cls-8" d="M50.94,47.28c-3.28,0-4.85,3.84-5.9,4.54s2.71,4.45,6,4.41,3.31-.8,5.9-4.54C57.85,50.38,54.23,47.25,50.94,47.28Z" transform="translate(0 16.98)"/><circle class="cls-1" cx="60" cy="76.98" r="60"/></svg>