<svg id="Layer_1" data-name="Layer 1" xmlns="http://www.w3.org/2000/svg" viewBox="0 0 120 120"><defs><style>.cls-1{fill:none;}.cls-2{fill:#4a92c9;}</style></defs><title>велосипед</title><circle class="cls-1" cx="60" cy="60" r="60"/><path class="cls-2" d="M88.87,49.76a18,18,0,0,0-4.48.56L78.05,32.81,77.4,31a7.57,7.57,0,0,0-7.08-4.94H65a1.74,1.74,0,1,0,0,3.48h5.35a4.08,4.08,0,0,1,3.81,2.66L74.78,34l2.56,7.08H46L43,36c3.47-.5,6.52-1.64,6.52-3.08,0-1.68-9.51-1.06-9.56-1.06-3.22-.38-2.37-1.4-5.12-1.42-1.14,0-2.34.17-2.93,1.42-1.78,3.76,1.91,4.72,7.26,4.49l3.68,6.28a3.7,3.7,0,0,0-.23.37l-4.44,8.19A18.07,18.07,0,1,0,49.11,69.57h10.6l.26,0a1.73,1.73,0,0,0,.94-.55l.07-.08L79.17,46.12l2,5.39a18.06,18.06,0,1,0,7.76-1.75ZM31.13,82.42A14.59,14.59,0,1,1,36.5,54.27L31.22,64h-.09a3.82,3.82,0,1,0,3.4,5.56H45.61A14.61,14.61,0,0,1,31.13,82.42Zm3.4-16.33a3.82,3.82,0,0,0-.25-.42l5.28-9.73a14.59,14.59,0,0,1,6,10.15Zm14.58,0a18.08,18.08,0,0,0-7.88-13.23l3.66-6.74,11.69,20Zm10.72-1.33L48,44.57H76Zm29,17.66a14.58,14.58,0,0,1-6.56-27.61l3.77,10.42A3.82,3.82,0,1,0,89.36,64L85.58,53.62a14.59,14.59,0,1,1,3.29,28.8Z" transform="translate(0)"/></svg>