<?xml version="1.0" encoding="utf-8"?>
<!-- Generator: Adobe Illustrator 21.1.0, SVG Export Plug-In . SVG Version: 6.00 Build 0)  -->
<svg version="1.1" id="Layer_1" xmlns="http://www.w3.org/2000/svg" xmlns:xlink="http://www.w3.org/1999/xlink" x="0px" y="0px"
	 viewBox="0 0 120 120" style="enable-background:new 0 0 120 120;" xml:space="preserve">
<style type="text/css">
	.st0{clip-path:url(#SVGID_2_);}
	.st1{fill:none;}
	.st2{fill:#FFFFFF;}
	.st3{fill:#2075BC;}
	.st4{fill:#4A92C9;}
</style>
<title>сухость</title>
<g>
	<g>
		<defs>
			<circle id="SVGID_1_" cx="60" cy="60" r="60"/>
		</defs>
		<clipPath id="SVGID_2_">
			<use xlink:href="#SVGID_1_"  style="overflow:visible;"/>
		</clipPath>
		<g class="st0">
			<line class="st1" x1="47.3" y1="49.9" x2="54.3" y2="47.1"/>
			<path class="st2" d="M81-15.3l-55.8,6c0,0,2.4,65.5,10.1,81.9c4,8.6,60.6,48.7,70.3,56.9l27.7-19.9C99.1,59.9,82,48.9,79.6,41.5
				S81-15.3,81-15.3z"/>
			<path class="st3" d="M90,52.4c-5.1-5.5-8.1-8.8-8.9-11.3c-1.9-5.8,0.4-42.6,1.5-56.3l0.1-1.8l-59,6.3v1.4
				c0.1,2.7,2.5,66,10.2,82.5c2.8,6,27.1,24.5,53.9,44.6c7.9,5.9,14.2,10.6,16.9,12.8l0.9,0.7l29.8-21.5l-0.8-1.2
				C113.3,77.8,98.7,61.9,90,52.4z M105.7,127.6c-3.1-2.5-8.9-6.8-16.1-12.2c-18.8-14.1-50.2-37.6-53-43.4
				C29.8,57.3,27.2,1.6,26.8-8l52.6-5.7c-0.7,9.9-3.5,48.8-1.2,55.7c1,3.1,4.1,6.4,9.6,12.4c8.6,9.3,22.8,24.8,43.6,54.8
				L105.7,127.6z"/>
			<path class="st4" d="M90,52.4c-5.1-5.5-8.1-8.8-8.9-11.3c-1.9-5.8,0.4-42.6,1.5-56.3l0.1-1.8l-59,6.3v1.4
				c0.1,2.7,2.5,66,10.2,82.5c2.8,6,27.1,24.5,53.9,44.6c7.9,5.9,14.2,10.6,16.9,12.8l0.9,0.7l29.8-21.5l-0.8-1.2
				C113.3,77.8,98.7,61.9,90,52.4z M105.7,127.6c-3.1-2.5-8.9-6.8-16.1-12.2c-18.8-14.1-50.2-37.6-53-43.4
				C29.8,57.3,27.2,1.6,26.8-8l52.6-5.7c-0.7,9.9-3.5,48.8-1.2,55.7c1,3.1,4.1,6.4,9.6,12.4c8.6,9.3,22.8,24.8,43.6,54.8
				L105.7,127.6z"/>
			<path class="st4" d="M83.2,46.3c-0.4-0.8-0.8-1.6-1.2-2.3c-0.3-0.4-0.6-0.9-1-1.4c-0.4-0.5-0.8-1-1.2-1.4c-0.5-0.5-1-0.9-1.5-1.3
				c-0.5-0.4-1.1-0.9-1.6-1.3l-1.6-1.3c-0.5-0.4-1.1-0.8-1.6-1.2l-1.5-1.2c-0.5-0.4-0.9-0.7-1.4-1c-1.7-1.2-2.9-2-2.9-2l-0.2,0.2
				c0,0,0.9,1.1,2.3,2.6c0.4,0.4,0.7,0.8,1.1,1.2l1.2,1.4l2.7,3c0.5,0.5,0.9,1,1.3,1.6c0.4,0.5,0.8,1,1.3,1.5
				c0.8,0.8,1.7,1.6,2.7,2.3c0.7,0.5,1.4,1,2.2,1.4l0.7,0.3l0.2,0.1l0.2-0.2c0,0,0-0.1-0.1-0.3S83.3,46.6,83.2,46.3z"/>
		</g>
	</g>
	<polygon class="st2" points="51,64.8 67.5,73.2 44.7,38.4 	"/>
	<polygon class="st2" points="71.5,75.3 67.5,73.2 86.5,102.3 	"/>
	<path class="st4" d="M52.3,64.5l-0.2-0.6l-0.5-0.3L52.3,64.5z"/>
	<polygon class="st4" points="70.3,76 70.5,76.4 70.9,76.6 	"/>
	<path class="st4" d="M84.1,97l-0.8-1.7c-0.6-1.2-1.1-2.3-1.7-3.5s-1.1-2.3-1.7-3.5l-1.7-3.4l-1.8-3.4L74.6,78l-1.8-3.4l-0.2-0.4
		L72.2,74l-2.6-1.3l-2.6-1.3c-1.7-0.9-3.4-1.8-5.1-2.6l-2.6-1.3l-2.6-1.3c-1.5-0.8-3.1-1.5-4.6-2.3l0.2,0.6l-0.7-0.9l0.5,0.3
		l-0.7-2.6L50.5,58c-0.6-2.2-1.2-4.4-1.8-6.5l-1-3.3l-1-3.2c-0.3-1.1-0.7-2.2-1-3.2s-0.7-2.2-1.1-3.2c0.2,1.1,0.3,2.2,0.5,3.4
		s0.3,2.2,0.6,3.3l0.6,3.3l0.6,3.3c0.4,2.2,0.9,4.4,1.3,6.7l0.7,3.3l0.7,3.3l0.1,0.6l0.6,0.3c1.7,0.9,3.4,1.8,5.1,2.7l2.6,1.3
		l2.6,1.3c1.7,0.9,3.4,1.7,5.1,2.6l2.6,1.2l2.2,1.1L70.3,76l0.6,0.6l-0.4-0.2l1.7,2.9l2,3.3l2,3.3l2,3.3c0.7,1.1,1.4,2.2,2,3.3
		s1.4,2.2,2.1,3.3l1,1.6l1.1,1.6c0.7,1.1,1.4,2.2,2.2,3.2c-0.5-1.2-1-2.4-1.6-3.5L84.1,97z"/>
	<polygon class="st4" points="47.7,17.7 54.4,35.5 54.5,35.4 54.5,35.7 54.4,35.5 47,50.7 48.4,51.3 55.2,35.7 55.3,35.5 55.2,35.4 
			"/>
	<polygon class="st4" points="54.5,35.4 54.4,35.5 54.5,35.7 	"/>
	<polygon class="st4" points="51.3,26.3 59.7,17.7 50.7,25.6 	"/>
	<polygon class="st4" points="59.2,80.9 59.2,80.7 59,80.4 	"/>
	<polygon class="st4" points="59.2,80.9 59,80.4 59.2,80.7 59.7,68.5 57,68.5 57.5,80.9 57.6,81.3 57.7,81.5 71.5,96.9 59.2,80.7 	
		"/>
	<polygon class="st4" points="78,86.9 95.4,86 78,85.1 	"/>
</g>
</svg>
