<svg id="Layer_1" data-name="Layer 1" xmlns="http://www.w3.org/2000/svg" xmlns:xlink="http://www.w3.org/1999/xlink" viewBox="0 0 135.39 148.37"><defs><style>.cls-1{fill:none;}.cls-2{clip-path:url(#clip-path);}.cls-3{fill:#eff5fa;}.cls-4{fill:#fff;}.cls-5{fill:#2075bc;}.cls-6{fill:#4a92c9;}</style><clipPath id="clip-path" transform="translate(0 16.98)"><circle class="cls-1" cx="60" cy="60" r="60"/></clipPath></defs><title>24-48</title><g class="cls-2"><line class="cls-3" x1="47.28" y1="66.87" x2="54.34" y2="64.11"/><path class="cls-4" d="M81-15.3l-55.79,6s2.36,65.49,10.05,81.9c4,8.6,60.58,48.74,70.35,56.88l27.69-19.95C99.13,59.88,82,48.89,79.59,41.57S81-15.3,81-15.3Z" transform="translate(0 16.98)"/><path class="cls-5" d="M90,52.41C84.9,46.9,81.84,43.57,81,41.09c-1.92-5.77.44-42.58,1.51-56.28l.14-1.8-59,6.34,0,1.4c.1,2.69,2.46,66,10.19,82.49,2.83,6,27.11,24.53,53.89,44.56,7.91,5.92,14.16,10.59,16.85,12.84l.89.74,29.82-21.49-.83-1.21C113.29,77.81,98.69,61.91,90,52.41Zm15.74,75.19c-3.09-2.48-8.9-6.83-16.07-12.2C70.83,101.35,39.4,77.83,36.65,72,29.78,57.32,27.19,1.6,26.79-8l52.6-5.66C78.65-3.75,75.89,35.2,78.17,42c1,3.09,4.07,6.39,9.58,12.39,8.56,9.32,22.81,24.83,43.5,54.75Z" transform="translate(0 16.98)"/><path class="cls-6" d="M90,52.41C84.9,46.9,81.84,43.57,81,41.09c-1.92-5.77.44-42.58,1.51-56.28l.14-1.8-59,6.34,0,1.4c.1,2.69,2.46,66,10.19,82.49,2.83,6,27.11,24.53,53.89,44.56,7.91,5.92,14.16,10.59,16.85,12.84l.89.74,29.82-21.49-.83-1.21C113.29,77.81,98.69,61.91,90,52.41Zm15.74,75.19c-3.09-2.48-8.9-6.83-16.07-12.2C70.83,101.35,39.4,77.83,36.65,72,29.78,57.32,27.19,1.6,26.79-8l52.6-5.66C78.65-3.75,75.89,35.2,78.17,42c1,3.09,4.07,6.39,9.58,12.39,8.56,9.32,22.81,24.83,43.5,54.75Z" transform="translate(0 16.98)"/><path class="cls-6" d="M83.18,46.32A15.65,15.65,0,0,0,81.93,44c-.28-.45-.62-.91-1-1.39a13.38,13.38,0,0,0-1.24-1.42,19.56,19.56,0,0,0-1.54-1.31c-.54-.43-1.09-.86-1.63-1.31l-1.6-1.33c-.52-.45-1.07-.85-1.58-1.25l-1.49-1.15c-.47-.37-.93-.7-1.36-1-1.7-1.22-2.86-2-2.86-2l-.2.23s.92,1.05,2.33,2.58c.36.38.74.79,1.13,1.24l1.25,1.39,2.71,3c.46.51.9,1,1.32,1.58a19.4,19.4,0,0,0,1.3,1.51,20.1,20.1,0,0,0,2.71,2.27,18.87,18.87,0,0,0,2.19,1.36l.68.33.25.11.22-.2s0-.09-.08-.26S83.31,46.62,83.18,46.32Z" transform="translate(0 16.98)"/></g><line class="cls-3" x1="50.88" y1="68.67" x2="57.93" y2="65.91"/><circle class="cls-1" cx="60" cy="76.98" r="60"/><path class="cls-6" d="M70.17,14.17a.71.71,0,0,0-.51-.5l-2.88-.75L66,10a.71.71,0,0,0-1.2-.33l-4.07,4.07a.72.72,0,0,0-.19.68l.82,3.16-.18.18A7.37,7.37,0,0,0,51,18.48a7.39,7.39,0,0,0-12.85,5c0,3.9,2.14,7.77,6.19,11.21l-3.44,3.44L39.1,36.29a.71.71,0,0,0-1.18.27l-2.3,6.61a.71.71,0,0,0,.91.91l6.61-2.3a.71.71,0,0,0,.27-1.18l-1.81-1.81,3.5-3.5a31.09,31.09,0,0,0,5.62,3.56.72.72,0,0,0,.6,0,31.21,31.21,0,0,0,6.22-4.06c4.14-3.47,6.32-7.39,6.32-11.33a7.35,7.35,0,0,0-2-5l.17-.17,3.16.82.18,0a.71.71,0,0,0,.51-.21L70,14.86A.71.71,0,0,0,70.17,14.17ZM37.46,42.24l1.44-4.13,2.69,2.69ZM65,11.61l.51,1.95-2.89,2.89-.51-1.95ZM62.43,23.46c0,7.75-9.58,13-11.42,13.94-1.84-.93-11.42-6.19-11.42-13.94A6,6,0,0,1,50.43,20a.71.71,0,0,0,1.17,0,5.95,5.95,0,0,1,8.61-1.21l-4.52,4.52-.77-.77a.71.71,0,1,0-1,1l2.22,2.22a.71.71,0,1,0,1-1L56.36,24l4.54-4.54A5.93,5.93,0,0,1,62.43,23.46Zm2.77-5.82-1.95-.51,2.89-2.89,1.95.51Z" transform="translate(0 16.98)"/><path class="cls-6" d="M41.12,9.69,39.39,10.8a6.34,6.34,0,0,0-1.91,8.74L51.91,42a6.34,6.34,0,0,0,8.74,1.91l1.73-1.11a6.34,6.34,0,0,0,1.91-8.74L49.86,11.59A6.34,6.34,0,0,0,41.12,9.69Z" transform="translate(0 16.98)"/><path class="cls-4" d="M62.93,35a4.71,4.71,0,0,1-1.42,6.5l-1.73,1.11a4.71,4.71,0,0,1-6.5-1.42L49.95,36l9.65-6.19Z" transform="translate(0 16.98)"/><path class="cls-4" d="M48.49,12.47l3.33,5.19-9.65,6.19-3.33-5.19a4.71,4.71,0,0,1,1.42-6.5L42,11.05A4.71,4.71,0,0,1,48.49,12.47Z" transform="translate(0 16.98)"/><circle class="cls-4" cx="46.94" cy="25.9" r="0.91" transform="translate(-6.56 46.44) rotate(-32.69)"/><circle class="cls-4" cx="49.32" cy="24.37" r="0.91" transform="translate(-5.35 47.48) rotate(-32.69)"/><circle class="cls-4" cx="51.7" cy="22.84" r="0.91" transform="translate(-4.15 48.53) rotate(-32.69)"/><circle class="cls-4" cx="48.5" cy="28.34" r="0.91" transform="translate(-7.63 47.67) rotate(-32.69)"/><circle class="cls-4" cx="50.88" cy="26.81" r="0.92" transform="translate(-6.42 48.72) rotate(-32.69)"/><circle class="cls-4" cx="53.27" cy="25.28" r="0.91" transform="translate(-5.22 49.76) rotate(-32.69)"/><circle class="cls-4" cx="50.06" cy="30.78" r="0.91" transform="translate(-8.69 48.9) rotate(-32.69)"/><circle class="cls-4" cx="52.45" cy="29.25" r="0.91" transform="translate(-7.49 49.95) rotate(-32.69)"/><circle class="cls-4" cx="54.83" cy="27.72" r="0.91" transform="translate(-6.29 50.99) rotate(-32.69)"/></svg>