<?xml version="1.0" encoding="utf-8"?>
<!-- Generator: Adobe Illustrator 21.1.0, SVG Export Plug-In . SVG Version: 6.00 Build 0)  -->
<svg version="1.1" id="Layer_1" xmlns="http://www.w3.org/2000/svg" xmlns:xlink="http://www.w3.org/1999/xlink" x="0px" y="0px"
	 viewBox="0 0 120 120" style="enable-background:new 0 0 120 120;" xml:space="preserve">
<style type="text/css">
	.st0{clip-path:url(#SVGID_2_);}
	.st1{fill:#EFF5FA;}
	.st2{fill:#FFFFFF;}
	.st3{fill:#4A92C9;}
	.st4{fill:#F9B0A2;}
</style>
<title>жирная кожа</title>
<g>
	<g>
		<defs>
			<circle id="SVGID_1_" cx="60" cy="60" r="60"/>
		</defs>
		<clipPath id="SVGID_2_">
			<use xlink:href="#SVGID_1_"  style="overflow:visible;"/>
		</clipPath>
		<g class="st0">
			<rect x="-37.2" y="-20.3" class="st1" width="168.8" height="149.6"/>
			<path class="st2" d="M99.6,126.5c-7.9-10.2-8.4-44-8.4-44H27.5c0,0-0.4,33.8-8.2,44c-7.7,10-26.7,26.5-93.3,38.2l8.5,38.9
				l258.5-8.1v-31C129.1,155.4,107.3,136.5,99.6,126.5z"/>
			<path class="st2" d="M57.6-92.9c-40,0-68.1,42.3-68.1,84.2s33,111.4,68.1,111.5c40,0.1,68.1-69.6,68.1-111.5S97.7-92.9,57.6-92.9
				z"/>
			<path class="st3" d="M57.6-94.4c-19.2,0-37,9.6-50.2,27C-4.9-51.3-11.9-29.8-11.9-8.7c0,20.9,8.3,49.3,21.1,72.2
				c6.7,11.9,14.3,22.1,22.1,29c8.8,7.9,17.7,12.2,26.4,12.2h0.1c18.5,0,36.4-14.7,50.3-41.1c11.6-22,19.2-50.5,19.2-72.4
				c0-21.2-7-42.5-19.3-58.7C94.7-84.8,76.8-94.4,57.6-94.4z M105.4,62c-18.1,34.1-37.6,39.3-47.7,39.3h-0.1
				c-15.2,0-31.9-14.4-45.9-39.3C-0.8,39.4-8.9,11.7-8.9-8.7S-2.1-50,9.8-65.6c12.6-16.7,29.6-25.8,47.9-25.8s35.2,9.2,47.9,25.8
				c11.9,15.7,18.7,36.4,18.7,56.9C124.2,12.7,116.8,40.4,105.4,62z"/>
			<path class="st3" d="M16.2,129.6c-5.5,7.1-13.7,13.3-25.1,18.9c-16.9,8.3-40.9,15.2-71.3,20.6l0.5,3
				c30.7-5.4,54.9-12.4,72.1-20.8c11.8-5.8,20.3-12.2,26.1-19.7c8.4-10.9,8.9-45.6,8.9-47h-3C24.4,84.7,24,119.5,16.2,129.6z"/>
			<path class="st3" d="M102.1,129.6c-7.8-10.1-8.3-44.9-8.3-45.2h-3c0,1.5,0.5,36.1,8.9,47c5.8,7.6,15.3,14.7,27.3,20.7
				c17.9,9,41.8,15.6,70.9,19.8l0.4-3C170.7,165,121.4,154.6,102.1,129.6z"/>
			<path class="st3" d="M74.4,59l-0.5-0.3c-0.5-0.3-1.1-0.6-1.6-0.9l-1.1-0.5c-0.3-0.1-0.6-0.3-0.8-0.4l-0.3-0.1
				c-0.8-0.3-1.6-0.6-2.4-0.8c-1.7-0.4-3.6-0.4-5.3,0c-0.8,0.2-1.7,0.6-2.4,1c-0.2,0.1-0.7,0.6-0.9,0.6S58.6,58,58.3,58h-0.1
				c-0.2,0-0.5-0.3-0.7-0.3s-0.5-0.3-0.8-0.5l-0.1-0.1c-0.8-0.4-1.6-0.8-2.4-1c-1.7-0.4-3.6-0.4-5.3,0c-0.8,0.2-1.6,0.5-2.4,0.8
				L46.2,57c-0.3,0.1-0.6,0.3-0.9,0.4l-1.1,0.5c-0.6,0.3-1.1,0.6-1.7,0.9l-0.4,0.2c-0.6,0.3-1.2,0.7-1.8,1.1l-4.2,2.7l4.4-1.6
				c0.4-0.1,0.7-0.3,1.1-0.4s0.8-0.3,1.2-0.4l0.5-0.2c0.6-0.2,1.2-0.4,1.8-0.7l1.1-0.4c0.2-0.1,0.5-0.2,0.7-0.3l0.4-0.1
				c0.7-0.2,1.4-0.4,2.1-0.6c1.4-0.3,2.8-0.3,4.2,0.1c0.7,0.2,1.4,0.5,2,0.8l0.2,0.1c0.3,0.2,0.7,0.3,1,0.5c0.5,0.2,1,0.3,1.6,0.2
				h0.1c0.5,0,1-0.1,1.5-0.2c0.3-0.1,0.7-0.3,1-0.5l0.2-0.1c0.6-0.3,1.3-0.6,2-0.8c0.6-0.2,1.3-0.3,2-0.3c0.7,0,1.4,0,2.1,0.2
				c0.7,0.1,1.4,0.3,2.1,0.6l0.3,0.1c0.2,0.1,0.5,0.2,0.7,0.3l1.1,0.4c0.6,0.2,1.1,0.4,1.7,0.6l0.6,0.2c0.4,0.1,0.8,0.3,1.1,0.4
				s0.7,0.3,1.1,0.4l4.4,1.6l-4.3-2.8C75.6,59.7,75,59.3,74.4,59z"/>
			<path class="st3" d="M80.3,63.2c-1.7,0.6-3.5,1-5.2,1h-0.2c-1.2,0-2.3-0.2-3.4-0.4l-0.9-0.2c-1.1-0.3-2.2-0.5-3.3-0.6
				c-1.6-0.2-3.2-0.2-4.8,0.1c-0.8,0.1-1.7,0.4-2.5,0.7c-0.2,0.1-0.5,0.2-0.8,0.3l-0.3,0.1c-0.1,0-0.1,0-0.2,0.1h-0.1h-0.3h-0.1
				c-0.1,0-0.2,0-0.4,0h-0.1l-0.1-0.1L57.2,64c-0.3-0.1-0.6-0.3-0.9-0.4c-0.8-0.3-1.6-0.5-2.5-0.6c-1.6-0.2-3.2-0.2-4.8,0
				c-1.1,0.1-2.1,0.4-3.1,0.6l-1.1,0.3c-1.2,0.3-2.4,0.4-3.5,0.3c-1.8-0.1-3.6-0.4-5.3-1c-0.7-0.2-1.3-0.5-1.9-0.8l-0.6,1
				c0.6,0.4,1.3,0.7,2,1c1.8,0.8,3.7,1.3,5.7,1.4c1.3,0.1,2.7,0,4-0.2l0.9-0.1c1-0.2,2.1-0.4,3.2-0.5c1.4-0.2,2.8-0.2,4.2,0.1
				c0.7,0.1,1.4,0.3,2.1,0.6c0.2,0.1,0.5,0.2,0.7,0.3l0.4,0.2l0.2,0.1c0.2,0.1,0.3,0.1,0.5,0.2c0.3,0.1,0.5,0.1,0.8,0.1h0.2
				c0.2,0,0.3,0,0.5,0c0.3,0,0.6-0.1,0.9-0.2l0.5-0.2c0.2-0.1,0.3-0.2,0.5-0.2c0.6-0.3,1.3-0.5,2-0.6c1.4-0.3,2.8-0.3,4.2-0.1
				c1.4,0.1,2.9,0.4,4.1,0.6c1.3,0.2,2.7,0.3,4,0.3c2-0.1,3.9-0.6,5.7-1.4c0.7-0.3,1.4-0.7,2-1.1l-0.6-0.9
				C81.6,62.8,80.9,63,80.3,63.2z"/>
			<path class="st3" d="M71.2,69.1l-1.3,0.6c-0.3,0.1-0.6,0.2-0.9,0.3l-0.9,0.3l-1,0.3l-1.3,0.3c-0.7,0.2-1.5,0.3-2.2,0.4
				c-0.9,0.1-1.7,0.2-2.6,0.3l-1.3,0.1h-1.4c-0.6,0-1.3,0-1.9-0.1l-0.7-0.1c-0.8-0.1-1.7-0.2-2.6-0.4l-1-0.2c-0.5-0.1-1-0.2-1.4-0.3
				c-0.7-0.2-1.5-0.4-2.1-0.6c-1.4-0.4-2.5-0.8-3.2-1s-1.2-0.4-1.2-0.5L40.2,67l3.4,2.6c0.4,0.3,0.8,0.5,1.2,0.8
				c1,0.6,2.1,1.1,3.1,1.6c0.7,0.3,1.4,0.6,2.2,0.8c0.7,0.2,1.4,0.4,2.1,0.6l0.9,0.2c0.7,0.1,1.5,0.3,2.3,0.4l0.8,0.1
				c0.7,0.1,1.3,0.1,2,0.1h1.6l1.4-0.1c0.9-0.1,1.8-0.2,2.6-0.4H64c0.8-0.1,1.6-0.3,2.4-0.6l1.4-0.4l1.5-0.7
				c0.5-0.2,0.9-0.4,1.4-0.7l1.3-0.8c0.7-0.5,1.1-0.7,1.1-0.7l3.4-2.5l-4,1.5C72.4,68.7,72,68.8,71.2,69.1z"/>
			<path class="st3" d="M55.4,42c-0.1-0.3-0.3-0.6-0.6-0.8c-0.3-0.3-0.6-0.6-1-0.8h-0.1c-0.3-0.1-0.7-0.2-1-0.3L52.6,40
				c-0.8-0.2-1.7-0.3-2.6-0.2c-0.3,0-0.6,0.2-0.9,0.3l-0.6,0.4l0.4,1.1l0.5-0.1c0.2,0,0.5,0,0.7,0c0.6,0.2,1.2,0.4,1.8,0.7
				c0.2,0.1,0.3,0.2,0.4,0.3c0.2,0.1,0.4,0.2,0.5,0.3c0.4,0.2,0.7,0.3,1.1,0.3H54c0.2,0,0.4,0.1,0.6,0.1h0.2c0.1,0,0.2,0,0.3,0h0.2
				l0.4-0.5l-0.1-0.2C55.6,42.2,55.5,42.1,55.4,42z"/>
			<path class="st3" d="M66.7,39.8c-0.9-0.1-1.8-0.1-2.6,0.2L63.8,40c-0.3,0.1-0.7,0.2-1,0.3h-0.1c-0.7,0.4-1.2,0.9-1.5,1.6
				c-0.1,0.1-0.1,0.3-0.2,0.4L61,42.5l0.4,0.6h0.2H62c0.2,0,0.4,0,0.6-0.1h0.2c0.4-0.1,0.7-0.2,1.1-0.3l0,0c0.2-0.1,0.3-0.2,0.5-0.3
				s0.3-0.2,0.5-0.3c0.6-0.3,1.2-0.6,1.8-0.7c0.2,0,0.4,0,0.7,0l0.5,0.2l0.4-1.1l-0.6-0.3C67.3,39.9,67,39.8,66.7,39.8z"/>
		</g>
	</g>
	<circle class="st4" cx="22.4" cy="43.3" r="2.7"/>
	<circle class="st4" cx="35.4" cy="43.3" r="2.7"/>
	<circle class="st4" cx="26" cy="65.5" r="2.7"/>
	<circle class="st4" cx="55.8" cy="87" r="2.7"/>
	<circle class="st4" cx="28.7" cy="33.9" r="2.7"/>
	<circle class="st4" cx="91.1" cy="45.3" r="2.7"/>
	<circle class="st4" cx="97.3" cy="35.9" r="2.7"/>
</g>
</svg>
