<?xml version="1.0" encoding="utf-8"?>
<!-- Generator: Adobe Illustrator 21.1.0, SVG Export Plug-In . SVG Version: 6.00 Build 0)  -->
<svg version="1.1" id="Layer_1" xmlns="http://www.w3.org/2000/svg" xmlns:xlink="http://www.w3.org/1999/xlink" x="0px" y="0px"
	 viewBox="0 0 120 120" style="enable-background:new 0 0 120 120;" xml:space="preserve">
<style type="text/css">
	.st0{clip-path:url(#SVGID_2_);}
	.st1{fill:#FFFFFF;}
	.st2{fill:#4A92C9;}
</style>
<title>переохлаждение</title>
<g>
	<g>
		<defs>
			<circle id="SVGID_1_" cx="60" cy="60" r="60"/>
		</defs>
		<clipPath id="SVGID_2_">
			<use xlink:href="#SVGID_1_"  style="overflow:visible;"/>
		</clipPath>
		<g class="st0">
			<path class="st1" d="M88,34.1c-2.5-4.6-7.8-11.9-5.3-19.3s4.8-12.6,4.8-12.6L57.7-3.5c-0.8,7.7-3.1,15.2-6.8,22.1
				c-4,7.4-11.1,17.6-12.1,18.9C32.4,46.3,13.6,67,13.6,67s2.9,5,9.4,0c4.9-3.7,16.8-17.7,18.3-15.9s-20,30.5-20.6,32.1
				c-1.2,3.2,5.3,4.4,10-0.7c14.2-15.7,18.4-24.6,18.4-24.6s-3.4,8.9-5.4,15.4c-2.8,9.2-7.4,22.2-7.4,22.2c1.2,2.2,7.3,1.3,10.5-6.2
				c3.2-7.5,13.4-31.3,13.4-29.3c0.1,7.7-5.9,35.3-4.9,36.8s4.4,2.1,7.6-4.6s9-32.1,9.7-34.2s5.8-10.6,6.1-8.4
				c0.1,0.9,2.4,5.8,4.7,10.6C86.6,67,91.8,78.6,98.9,73c1.9-1.5-3.4-8.4-5.6-15.1C90.3,49.1,90.4,38.7,88,34.1z"/>
			<path class="st2" d="M94.7,57.4c-1.3-4.2-2.2-8.5-2.7-12.9c-0.7-4.6-1.3-8.5-2.7-11.1c-0.4-0.7-0.8-1.3-1.2-2.1
				c-2.5-4.3-5.9-10.3-4-16.1c2.4-7.3,4.7-12.4,4.7-12.4c0.3-0.8,0-1.6-0.8-2c-0.1,0-0.2-0.1-0.3-0.1L57.9-5
				c-0.8-0.2-1.6,0.4-1.8,1.2c0,0.1,0,0.1,0,0.2c-0.8,7.5-3,14.8-6.7,21.4C45.6,25,38.6,35,37.5,36.6c-6.2,8.7-24.8,29.2-25,29.4
				c-0.4,0.5-0.5,1.2-0.2,1.8c1.2,1.8,3.2,2.9,5.4,2.9c2.3-0.1,4.5-1,6.2-2.5c2.7-2.3,5.3-4.7,7.7-7.3c1.9-1.9,4.6-4.7,6.7-6.5
				c-3,5.2-9.9,15-13.7,20.3c-4.1,5.8-5.2,7.4-5.4,8c-0.4,1-0.3,2.1,0.3,3c1,1.2,2.5,1.9,4.1,1.8c3.1-0.2,6.1-1.6,8.1-4
				c4.9-5.4,8.6-10.1,11.4-13.8c-0.4,1.1-0.7,2.2-1,3.2c-2.7,9-7.3,22-7.4,22.1c-0.1,0.4-0.1,0.9,0.1,1.2c0.7,1.2,2.1,1.9,3.6,1.9
				c2.8,0,7-2.1,9.6-8.1l0.5-1.2c1.9-4.4,6.3-14.8,9.4-21.5c-0.6,4.2-1.4,9.3-2.2,14.1c-2.2,13.4-2.4,15.4-1.6,16.5
				c0.8,1,1.9,1.6,3.2,1.6c1.8,0,4.5-1.1,7-6.4s6.3-20.7,8.4-29c0.7-2.7,1.2-4.9,1.4-5.4c1.1-2.4,2.4-4.6,3.9-6.7
				c0.6,1.3,1.5,3.4,2.9,6.5l1.2,2.6v0.1C84.9,66.8,89,76,95.2,76c1.7,0,3.4-0.7,4.6-1.8c2.1-1.7,0.5-4.9-1.8-9.2
				C96.8,62.5,95.6,60,94.7,57.4z M95.2,73c-4.2,0-8.1-8.4-10.4-13.4v-0.1l-1.2-2.6c-1.4-3.1-3.2-7-3.4-7.6
				c-0.1-0.9-0.9-1.6-1.8-1.6c-0.9,0-1.8,0.3-4.4,4.4c-1.1,1.7-2.1,3.5-2.9,5.4c-0.2,0.6-0.6,2.3-1.4,5.6
				c-2.1,8.2-5.9,23.6-8.2,28.5c-1.6,3.5-3.3,4.7-4.3,4.7c-0.2,0-0.4-0.1-0.6-0.2c-0.1-1.7,1.1-8.7,2-14.3
				c1.4-8.3,2.9-17.6,2.9-21.8c0-0.9-0.7-1.6-1.5-1.6c0,0,0,0,0,0c-1.1,0-1.6,0.9-3.2,4.1c-0.9,1.8-2.1,4.5-3.6,7.8
				c-2.7,6-5.7,13-7.5,17.2c0,0-4.6-2.4-4.8-2.4c1.5-3.7,2.9-7.5,4-11.3c1.9-6.4,5.4-15.2,5.4-15.3c0.3-0.8-0.1-1.6-0.9-1.9
				c-0.7-0.2-1.5,0.1-1.8,0.7c0,0.1-1.9,6.2-15.7,21.5c-2.5,2.8-4.9-2.2-4.9-2.3c0.3-0.6-2.3,3.3,0,0c15.7-22.3,16.6-24.7,15.3-26.3
				c-0.4-0.5-0.9-0.7-1.5-0.7c-1.9,0-2.6,0.6-9.2,7.2c-2.8,2.8-6.2-1.5-6.7-1.9c3.9-4.3,9.4-8.6,15-16.4c1.1-1.6,8.2-11.8,12.2-19.1
				c3.6-6.5,5.9-13.6,6.9-21l26.4,5c-0.9,2.1-2.4,6-4.1,11c-2.4,7.1,1.4,13.7,4.2,18.5c0.4,0.7,0.8,1.4,1.1,2
				c1.1,2.1,1.7,6,2.4,10.1c0.6,4.6,1.5,9,2.8,13.4c1,2.7,2.2,5.4,3.6,7.9c1,1.9,2.4,4.7,2.4,5.6C97.1,72.6,96.2,72.9,95.2,73
				L95.2,73z"/>
			<path class="st2" d="M84.3,90.6L84.3,90.6c0.5,0.3,0.7,1,0.4,1.5l-7.6,13.1c-0.3,0.5-1,0.7-1.5,0.4l0,0c-0.5-0.3-0.7-1-0.4-1.5
				L82.8,91C83.1,90.5,83.8,90.3,84.3,90.6z"/>
			<path class="st2" d="M73.9,100.9l4.7-0.7c0.6-0.1,1.1-0.7,1-1.3c0,0,0,0,0,0l0,0c-0.1-0.6-0.7-1.1-1.3-1c0,0,0,0,0,0l-4.7,0.7
				c-0.6,0.1-1.1,0.7-1,1.3c0,0,0,0,0,0l0,0C72.6,100.6,73.2,101,73.9,100.9C73.8,100.9,73.9,100.9,73.9,100.9z"/>
			<path class="st2" d="M80.6,104.8l-1.8-4.5c-0.2-0.6,0.1-1.3,0.7-1.5l0,0c0.6-0.2,1.3,0.1,1.5,0.7l1.8,4.5
				c0.2,0.6-0.1,1.3-0.7,1.5l0,0C81.5,105.7,80.8,105.4,80.6,104.8z"/>
			<path class="st2" d="M83.3,90.6L83.3,90.6c0.5-0.3,1.2-0.1,1.5,0.4l7.6,13.1c0.3,0.5,0.1,1.2-0.4,1.5l0,0
				c-0.5,0.3-1.2,0.1-1.5-0.4l-7.6-13.1C82.6,91.6,82.8,90.9,83.3,90.6z"/>
			<path class="st2" d="M87,104.8l1.8-4.5c0.2-0.6-0.1-1.3-0.7-1.5l0,0c-0.6-0.2-1.3,0.1-1.5,0.7l-1.8,4.5c-0.2,0.6,0.1,1.3,0.7,1.5
				l0,0C86.1,105.7,86.8,105.4,87,104.8z"/>
			<path class="st2" d="M93.8,100.9l-4.7-0.7c-0.6-0.1-1.1-0.7-1-1.3c0,0,0,0,0,0l0,0c0.1-0.6,0.7-1.1,1.3-1c0,0,0,0,0,0l4.7,0.7
				c0.6,0.1,1.1,0.7,1,1.3c0,0,0,0,0,0l0,0C95,100.6,94.4,101,93.8,100.9C93.8,101,93.8,101,93.8,100.9z"/>
			<path class="st2" d="M82.8,91.5L82.8,91.5c0-0.6,0.5-1.1,1.1-1.1c0,0,0,0,0,0h15.1c0.6,0,1.1,0.5,1.1,1.1c0,0,0,0,0,0l0,0
				c0,0.6-0.5,1.1-1.1,1.1c0,0,0,0,0,0H84C83.3,92.6,82.8,92.1,82.8,91.5C82.8,91.5,82.8,91.5,82.8,91.5z"/>
			<path class="st2" d="M97,95.4l-3-3.8c-0.4-0.5-1.1-0.6-1.6-0.2l0,0c-0.5,0.4-0.6,1.1-0.2,1.6l3,3.8c0.4,0.5,1.1,0.6,1.6,0.2l0,0
				C97.3,96.6,97.4,95.9,97,95.4z"/>
			<path class="st2" d="M97,87.6l-3,3.8c-0.4,0.5-1.1,0.6-1.6,0.2l0,0c-0.5-0.4-0.6-1.1-0.2-1.6l3-3.8c0.4-0.5,1.1-0.6,1.6-0.2l0,0
				C97.3,86.4,97.4,87.1,97,87.6z"/>
			<path class="st2" d="M83.3,92.4L83.3,92.4c-0.5-0.3-0.7-1-0.4-1.5l7.6-13.1c0.3-0.5,1-0.7,1.5-0.4l0,0c0.5,0.3,0.7,1,0.4,1.5
				l-7.6,13.1C84.6,92.5,83.9,92.7,83.3,92.4z"/>
			<path class="st2" d="M93.8,82.1l-4.7,0.7c-0.6,0.1-1.1,0.7-1,1.3c0,0,0,0,0,0l0,0c0.1,0.6,0.7,1.1,1.3,1c0,0,0,0,0,0l4.7-0.7
				c0.6-0.1,1.1-0.7,1-1.3c0,0,0,0,0,0l0,0C95,82.4,94.4,82,93.8,82.1C93.8,82.1,93.8,82.1,93.8,82.1z"/>
			<path class="st2" d="M87.1,78.2l1.8,4.5c0.2,0.6-0.1,1.3-0.7,1.5l0,0c-0.6,0.2-1.3-0.1-1.5-0.7L84.9,79c-0.2-0.6,0.1-1.3,0.7-1.5
				l0,0C86.2,77.3,86.8,77.6,87.1,78.2z"/>
			<path class="st2" d="M84.3,92.4L84.3,92.4c-0.5,0.3-1.2,0.1-1.5-0.4l-7.6-13.1c-0.3-0.5-0.1-1.2,0.4-1.5l0,0
				c0.5-0.3,1.2-0.1,1.5,0.4l7.6,13.1C85.1,91.3,84.9,92,84.3,92.4z"/>
			<path class="st2" d="M80.6,78.1l-1.8,4.5c-0.2,0.6,0.1,1.3,0.7,1.5l0,0c0.6,0.2,1.3-0.1,1.5-0.7l1.8-4.5c0.2-0.6-0.1-1.3-0.7-1.5
				l0,0C81.5,77.2,80.9,77.5,80.6,78.1z"/>
			<path class="st2" d="M73.9,82l4.7,0.7c0.6,0.1,1.1,0.7,1,1.3c0,0,0,0,0,0l0,0c-0.1,0.6-0.7,1.1-1.3,1c0,0,0,0,0,0l-4.7-0.7
				c-0.6-0.1-1.1-0.7-1-1.3c0,0,0,0,0,0l0,0C72.7,82.4,73.3,81.9,73.9,82C73.9,82,73.9,82,73.9,82z"/>
			<path class="st2" d="M84.8,91.5L84.8,91.5c0,0.6-0.5,1.1-1.1,1.1c0,0,0,0,0,0H68.6c-0.6,0-1.1-0.5-1.1-1.1c0,0,0,0,0,0l0,0
				c0-0.6,0.5-1.1,1.1-1.1c0,0,0,0,0,0h15.1C84.3,90.4,84.8,90.9,84.8,91.5C84.8,91.5,84.8,91.5,84.8,91.5z"/>
			<path class="st2" d="M70.7,87.6l3,3.8c0.4,0.5,1.1,0.6,1.6,0.2l0,0c0.5-0.4,0.6-1.1,0.2-1.6l-3-3.8c-0.4-0.5-1.1-0.6-1.6-0.2l0,0
				C70.4,86.4,70.3,87.1,70.7,87.6z"/>
			<path class="st2" d="M70.7,95.4l3-3.8c0.4-0.5,1.1-0.6,1.6-0.2l0,0c0.5,0.4,0.6,1.1,0.2,1.6l-3,3.8c-0.4,0.5-1.1,0.6-1.6,0.2l0,0
				C70.4,96.6,70.3,95.8,70.7,95.4z"/>
			<ellipse transform="matrix(0.5 -0.866 0.866 0.5 -37.3219 118.3382)" class="st2" cx="83.8" cy="91.5" rx="0.2" ry="0.2"/>
			<path class="st2" d="M106.1,53.9L106.1,53.9c0.3,0.2,0.5,0.6,0.3,1c0,0,0,0,0,0l-4.8,8.3c-0.2,0.3-0.6,0.5-1,0.3c0,0,0,0,0,0l0,0
				c-0.3-0.2-0.5-0.6-0.3-1c0,0,0,0,0,0l4.8-8.3C105.3,53.8,105.8,53.7,106.1,53.9C106.1,53.9,106.1,53.9,106.1,53.9z"/>
			<path class="st2" d="M99.5,60.4l3-0.5c0.4-0.1,0.7-0.4,0.6-0.8l0,0c-0.1-0.4-0.4-0.7-0.8-0.6l-3,0.5c-0.4,0.1-0.7,0.4-0.6,0.8
				l0,0C98.8,60.2,99.1,60.5,99.5,60.4z"/>
			<path class="st2" d="M103.8,62.9l-1.1-2.8c-0.1-0.4,0-0.8,0.4-0.9c0,0,0,0,0,0l0,0c0.4-0.1,0.8,0,0.9,0.4c0,0,0,0,0,0l1.1,2.8
				c0.1,0.4,0,0.8-0.4,0.9c0,0,0,0,0,0l0,0C104.4,63.5,103.9,63.3,103.8,62.9C103.8,62.9,103.8,62.9,103.8,62.9z"/>
			<path class="st2" d="M105.5,53.9L105.5,53.9c0.3-0.2,0.8-0.1,1,0.2c0,0,0,0,0,0l4.8,8.3c0.2,0.3,0.1,0.8-0.2,1c0,0,0,0,0,0l0,0
				c-0.3,0.2-0.8,0.1-1-0.2c0,0,0,0,0,0l-4.8-8.3C105.1,54.6,105.2,54.1,105.5,53.9C105.5,53.9,105.5,53.9,105.5,53.9z"/>
			<path class="st2" d="M107.8,62.9l1.1-2.8c0.1-0.4,0-0.8-0.4-0.9c0,0,0,0,0,0l0,0c-0.4-0.1-0.8,0-0.9,0.4c0,0,0,0,0,0l-1.1,2.8
				c-0.1,0.4,0,0.8,0.4,0.9c0,0,0,0,0,0l0,0C107.3,63.5,107.7,63.3,107.8,62.9C107.8,62.9,107.8,62.9,107.8,62.9z"/>
			<path class="st2" d="M112.1,60.5l-3-0.5c-0.4-0.1-0.7-0.4-0.6-0.8l0,0c0.1-0.4,0.4-0.7,0.8-0.6l3,0.5c0.4,0.1,0.7,0.4,0.6,0.8
				l0,0C112.9,60.2,112.5,60.5,112.1,60.5z"/>
			<path class="st2" d="M105.2,54.5L105.2,54.5c0-0.4,0.3-0.7,0.7-0.7h0h9.6c0.4,0,0.7,0.3,0.7,0.7v0l0,0c0,0.4-0.3,0.7-0.7,0.7h0
				h-9.6C105.5,55.2,105.2,54.9,105.2,54.5z"/>
			<path class="st2" d="M114.1,56.9l-1.9-2.4c-0.3-0.3-0.7-0.3-1-0.1l0,0c-0.3,0.3-0.3,0.7-0.1,1l1.9,2.4c0.3,0.3,0.7,0.3,1,0.1l0,0
				C114.3,57.7,114.4,57.3,114.1,56.9z"/>
			<path class="st2" d="M114.1,52l-1.9,2.4c-0.3,0.3-0.7,0.3-1,0.1l0,0c-0.3-0.3-0.3-0.7-0.1-1l1.9-2.4c0.3-0.3,0.7-0.3,1-0.1l0,0
				C114.3,51.3,114.4,51.7,114.1,52z"/>
			<path class="st2" d="M105.5,55L105.5,55c-0.3-0.2-0.5-0.6-0.3-1c0,0,0,0,0,0l4.8-8.3c0.2-0.3,0.6-0.5,1-0.3c0,0,0,0,0,0l0,0
				c0.3,0.2,0.5,0.6,0.3,1c0,0,0,0,0,0l-4.8,8.3C106.3,55.1,105.9,55.2,105.5,55C105.5,55,105.5,55,105.5,55z"/>
			<path class="st2" d="M112.1,48.5l-3,0.5c-0.4,0.1-0.7,0.4-0.6,0.8l0,0c0.1,0.4,0.4,0.7,0.8,0.6l3-0.5c0.4-0.1,0.7-0.4,0.6-0.8
				l0,0C112.9,48.7,112.5,48.5,112.1,48.5z"/>
			<path class="st2" d="M107.9,46.1l1.1,2.8c0.1,0.4,0,0.8-0.4,0.9c0,0,0,0,0,0l0,0c-0.4,0.1-0.8,0-0.9-0.4c0,0,0,0,0,0l-1.1-2.8
				c-0.1-0.4,0-0.8,0.4-0.9c0,0,0,0,0,0l0,0C107.3,45.5,107.7,45.7,107.9,46.1C107.9,46.1,107.9,46.1,107.9,46.1z"/>
			<path class="st2" d="M106.1,55L106.1,55c-0.3,0.2-0.8,0.1-1-0.2c0,0,0,0,0,0l-4.8-8.3c-0.2-0.3-0.1-0.8,0.2-1c0,0,0,0,0,0l0,0
				c0.3-0.2,0.8-0.1,1,0.2c0,0,0,0,0,0l4.8,8.3C106.6,54.4,106.5,54.8,106.1,55C106.2,55,106.2,55,106.1,55z"/>
			<path class="st2" d="M103.8,46.1l-1.1,2.8c-0.1,0.4,0,0.8,0.4,0.9c0,0,0,0,0,0l0,0c0.4,0.1,0.8,0,0.9-0.4c0,0,0,0,0,0l1.1-2.8
				c0.1-0.4,0-0.8-0.4-0.9c0,0,0,0,0,0l0,0C104.4,45.5,104,45.7,103.8,46.1C103.8,46,103.8,46,103.8,46.1z"/>
			<path class="st2" d="M99.6,48.5l3,0.5c0.4,0.1,0.7,0.4,0.6,0.8l0,0c-0.1,0.4-0.4,0.7-0.8,0.6l-3-0.5c-0.4-0.1-0.7-0.4-0.6-0.8
				l0,0C98.8,48.7,99.2,48.4,99.6,48.5z"/>
			<path class="st2" d="M106.5,54.5L106.5,54.5c0,0.4-0.3,0.7-0.7,0.7h0h-9.6c-0.4,0-0.7-0.3-0.7-0.7v0l0,0c0-0.4,0.3-0.7,0.7-0.7h0
				h9.6C106.1,53.8,106.5,54.1,106.5,54.5z"/>
			<path class="st2" d="M97.5,52l1.9,2.4c0.3,0.3,0.7,0.3,1,0.1l0,0c0.3-0.3,0.3-0.7,0.1-1l-1.9-2.4c-0.3-0.3-0.7-0.3-1-0.1l0,0
				C97.3,51.3,97.3,51.7,97.5,52z"/>
			<path class="st2" d="M97.5,56.9l1.9-2.4c0.3-0.3,0.7-0.3,1-0.1l0,0c0.3,0.3,0.3,0.7,0.1,1l-1.9,2.4c-0.3,0.3-0.7,0.3-1,0.1l0,0
				C97.3,57.7,97.3,57.2,97.5,56.9z"/>
			<ellipse transform="matrix(0.5 -0.866 0.866 0.5 5.7318 118.8943)" class="st2" cx="105.8" cy="54.5" rx="0.1" ry="0.1"/>
		</g>
	</g>
	<polygon class="st2" points="44.6,42.3 44.4,42.3 44.1,42.5 	"/>
</g>
</svg>
