<svg id="Layer_1" data-name="Layer 1" xmlns="http://www.w3.org/2000/svg" xmlns:xlink="http://www.w3.org/1999/xlink" viewBox="0 0 120 125.04"><defs><style>.cls-1{fill:none;}.cls-2{clip-path:url(#clip-path);}.cls-3{fill:#fff;}.cls-4{fill:#4a92c9;}.cls-5{fill:#f9b0a2;}.cls-6{fill:#be202e;}</style><clipPath id="clip-path" transform="translate(0 5.04)"><circle class="cls-1" cx="60" cy="60" r="60"/></clipPath></defs><title>термический ожог</title><g class="cls-2"><path class="cls-3" d="M88,34.07c-2.49-4.62-7.75-11.89-5.26-19.35S87.45,2.16,87.45,2.16L57.66-3.54a57.84,57.84,0,0,1-6.84,22.05c-4,7.38-11.13,17.63-12.06,18.93C32.41,46.31,13.57,67,13.57,67s2.92,5,9.4,0C27.83,63.24,39.81,49.27,41.23,51s-20,30.49-20.61,32.15c-1.22,3.16,5.35,4.38,10-.73C44.78,66.78,49,57.86,49,57.86s-3.45,8.85-5.43,15.42c-2.75,9.17-7.39,22.16-7.39,22.16,1.23,2.24,7.28,1.31,10.48-6.16S60,58,60.07,59.95c.19,7.69-5.82,35.37-4.75,36.79s4.4,2.15,7.6-4.61,9-32.1,9.73-34.24,5.77-10.56,6.12-8.42c.15.88,2.45,5.77,4.67,10.6C86.6,67,91.86,78.58,98.91,73c1.94-1.54-3.4-8.41-5.65-15.11C90.29,49.08,90.44,38.69,88,34.07Z" transform="translate(0 5.04)"/><path class="cls-4" d="M94.68,57.4A77.06,77.06,0,0,1,92,44.48c-.69-4.57-1.28-8.53-2.68-11.12-.35-.65-.75-1.35-1.17-2.08-2.5-4.34-5.92-10.28-4-16.09,2.43-7.3,4.68-12.37,4.7-12.42A1.5,1.5,0,0,0,87.73.68L57.94-5a1.5,1.5,0,0,0-1.2.29,1.5,1.5,0,0,0-.57,1.1A56.92,56.92,0,0,1,49.5,17.8C45.59,25,38.66,35,37.54,36.57c-6.23,8.7-24.89,29.17-25.08,29.38a1.5,1.5,0,0,0-.18,1.77,6.43,6.43,0,0,0,5.37,2.94,10.47,10.47,0,0,0,6.23-2.51,97.69,97.69,0,0,0,7.72-7.29c1.91-1.92,4.64-4.66,6.72-6.5-3,5.18-9.94,15-13.69,20.33-4.09,5.82-5.16,7.36-5.39,8a3.18,3.18,0,0,0,.29,3,4.8,4.8,0,0,0,4.09,1.76,11.35,11.35,0,0,0,8.1-4c4.92-5.44,8.64-10.06,11.42-13.8-.36,1.09-.7,2.16-1,3.18-2.71,9-7.32,22-7.37,22.09a1.5,1.5,0,0,0,.1,1.23A3.87,3.87,0,0,0,38.41,98c2.83,0,7-2.13,9.61-8.14l.53-1.23C50.42,84.28,54.87,73.88,58,67.1c-.56,4.2-1.41,9.32-2.2,14.07-2.24,13.42-2.44,15.42-1.65,16.47a4,4,0,0,0,3.17,1.55c1.8,0,4.47-1.11,7-6.41s6.33-20.69,8.42-29c.68-2.72,1.22-4.88,1.38-5.37A36.57,36.57,0,0,1,78,51.65c.55,1.32,1.48,3.35,2.91,6.46l1.19,2.6,0,.1C84.88,66.84,89.06,76,95.19,76a7.46,7.46,0,0,0,4.65-1.8c2.14-1.7.51-4.86-1.75-9.24A56.59,56.59,0,0,1,94.68,57.4ZM95.19,73c-4.21,0-8.05-8.39-10.35-13.4l0-.11-1.2-2.6c-1.43-3.1-3.2-7-3.36-7.65a1.78,1.78,0,0,0-1.75-1.57c-.85,0-1.82.33-4.38,4.37a33.54,33.54,0,0,0-2.89,5.42C71,58,70.59,59.73,69.77,63c-2.06,8.24-5.9,23.58-8.22,28.48-1.64,3.46-3.28,4.7-4.27,4.7a1,1,0,0,1-.6-.19c-.07-1.71,1.09-8.68,2-14.34C60.1,73.39,61.66,64,61.57,59.91A1.56,1.56,0,0,0,60,58.33c-1.15,0-1.65.92-3.18,4.11-.88,1.84-2.09,4.47-3.58,7.83-2.68,6-5.67,13-7.46,17.2l-.53,1.23C43.41,93,40.41,95,38.41,95a2.19,2.19,0,0,1-.48-.05C39.06,91.76,42.7,81.36,45,73.72c1.94-6.44,5.35-15.22,5.39-15.31a1.5,1.5,0,0,0-2.75-1.18c0,.09-4.32,9-18.15,24.24a8.15,8.15,0,0,1-5.88,3A2.2,2.2,0,0,1,22,84s0-.15,0-.21c.33-.63,2.73-4.05,5.06-7.36,15.7-22.31,16.6-24.7,15.33-26.29a1.92,1.92,0,0,0-1.53-.72c-1.91,0-4.79,2.7-11.4,9.34a98.62,98.62,0,0,1-7.41,7,7.64,7.64,0,0,1-4.4,1.89,3.33,3.33,0,0,1-2.06-.7C19.49,62.67,34.38,46.14,40,38.31c1.13-1.58,8.17-11.79,12.15-19.08A60.73,60.73,0,0,0,59-1.75l26.35,5c-.87,2.11-2.41,6-4.07,11-2.36,7.08,1.45,13.7,4.23,18.53.41.72.8,1.39,1.13,2,1.15,2.13,1.73,6,2.35,10.14a79.35,79.35,0,0,0,2.84,13.43,58.8,58.8,0,0,0,3.59,7.94c1,1.89,2.43,4.71,2.41,5.63A4.38,4.38,0,0,1,95.19,73Z" transform="translate(0 5.04)"/></g><path class="cls-5" d="M56.08,30.44c-5.91,11-6.7,25.49-1.88,24.69,7.58-1.26,13.6-4.22,19.51-15.26s4.56-12.44,1.88-24.7C74.6,10.68,62,19.41,56.08,30.44Z" transform="translate(0 5.04)"/><path class="cls-6" d="M66.58,22.73l.33-2.2-1.6,1.54a11.08,11.08,0,0,0-2.67,10.09A5.23,5.23,0,0,1,61,30.36l-.63-1.12-.67,1.1c-.14.23-3.43,5.75-1.54,9.94,1,2.12,3,3.49,6.17,4.06a3.93,3.93,0,0,0,.7.06,6.46,6.46,0,0,0,4.13-1.68,6.69,6.69,0,0,0,2.24-5.17c0-2.81-1.28-4.88-2.51-6.89C67.43,28.33,66.07,26.13,66.58,22.73Zm.57,18.94a2.89,2.89,0,0,1-2.6,1.67h0A2.82,2.82,0,0,1,62,41.69c-.92-1.91,1.48-5.33,2-6l.6-.88.59.86C66.27,37.14,68,40,67.15,41.68Z" transform="translate(0 5.04)"/><circle class="cls-1" cx="60" cy="65.04" r="60"/></svg>