<svg id="Layer_1" data-name="Layer 1" xmlns="http://www.w3.org/2000/svg" viewBox="0 0 120 120"><defs><style>.cls-1{fill:none;}.cls-2{fill:#4a92c9;}</style></defs><title>бег</title><circle class="cls-1" cx="60" cy="60" r="60"/><circle class="cls-2" cx="68.92" cy="27.18" r="8.07"/><path class="cls-2" d="M56.78,70.39c-2.62-.58-4.54-2.37-4.84-4.32L45.33,73.7l-17,1a4.56,4.56,0,1,0,.55,9.1l19.56-1.17a3,3,0,0,0,2.08-1.07l0,0L58.86,72,57,70.44Z" transform="translate(0)"/><path class="cls-2" d="M91.92,48.33a3.43,3.43,0,0,0-3.79-3L77.74,47l-4.59-5.34a3.37,3.37,0,0,1-.06.4l-1.83,8.31c1.82,2.08,3.28,3.75,3.36,3.8a1.91,1.91,0,0,0,1.42.37l13.25-2.18A3.43,3.43,0,0,0,91.92,48.33Z" transform="translate(0)"/><path class="cls-2" d="M78.2,74.69,66.81,65,72,41.45c.52-2.37-1.63-4.87-4.8-5.56l-2.1-.46a7.74,7.74,0,0,0-1.63-.18h0a6.87,6.87,0,0,0-1.75.22c-3.95.54-14.35,2-14.53,2a1.9,1.9,0,0,0-1.08,1L40.64,50.79a3.6,3.6,0,0,0,6.55,2.89l4.25-9.63,5.9-.78L52.84,63.76c-.52,2.37,1.63,4.87,4.8,5.56l.25.05,11.81,10L67,95.53A4.56,4.56,0,1,0,76,97c0-.09,3.23-19.66,3.23-19.82A3.13,3.13,0,0,0,78.2,74.69Z" transform="translate(0)"/></svg>